<svg width="21" height="22" viewBox="0 0 21 22" fill="none" xmlns="http://www.w3.org/2000/svg">
<g clip-path="url(#clip0)">
<path d="M3.85 6.44995C2.69019 6.44995 1.75 7.39014 1.75 8.54995C1.75127 9.70924 2.69071 10.6487 3.85 10.65C5.00981 10.65 5.95 9.70976 5.95 8.54995C5.95 7.39014 5.00981 6.44995 3.85 6.44995ZM3.85 9.94995C3.07681 9.94995 2.45 9.32314 2.45 8.54995C2.45083 7.77711 3.07716 7.15078 3.85 7.14995C4.62319 7.14995 5.25 7.77676 5.25 8.54995C5.25 9.32314 4.62319 9.94995 3.85 9.94995Z" fill="#5C5C5C"/>
<path d="M9.4499 2.59998C7.90351 2.59998 6.6499 3.85359 6.6499 5.39998C6.65165 6.94562 7.90426 8.19823 9.4499 8.19998C10.9963 8.19998 12.2499 6.94636 12.2499 5.39998C12.2499 3.85359 10.9963 2.59998 9.4499 2.59998ZM9.4499 7.49998C8.29009 7.49998 7.3499 6.55979 7.3499 5.39998C7.35117 4.24069 8.29061 3.30124 9.4499 3.29998C10.6097 3.29998 11.5499 4.24016 11.5499 5.39998C11.5499 6.55979 10.6097 7.49998 9.4499 7.49998Z" fill="#5C5C5C"/>
<path d="M12.25 13.1C11.2835 13.1 10.5 13.8835 10.5 14.85C10.5 15.8165 11.2835 16.6 12.25 16.6C13.2165 16.6 14 15.8165 14 14.85C13.9989 13.8839 13.216 13.1011 12.25 13.1ZM12.25 15.9C11.6701 15.9 11.2 15.4299 11.2 14.85C11.2 14.2701 11.6701 13.8 12.25 13.8C12.8299 13.8 13.3 14.2701 13.3 14.85C13.2994 15.4296 12.8296 15.8994 12.25 15.9Z" fill="#5C5C5C"/>
<path d="M7.0001 12.75C5.26042 12.75 3.8501 14.1603 3.8501 15.9C3.8501 17.6397 5.26042 19.05 7.0001 19.05C8.73982 19.05 10.1501 17.6397 10.1501 15.9C10.1481 14.1611 8.73898 12.752 7.0001 12.75ZM7.0001 18.35C5.647 18.35 4.5501 17.2531 4.5501 15.9C4.5501 14.5469 5.647 13.45 7.0001 13.45C8.3532 13.45 9.4501 14.5469 9.4501 15.9C9.44852 17.2524 8.35254 18.3484 7.0001 18.35Z" fill="#5C5C5C"/>
<path d="M11.1998 17.65C10.4266 17.65 9.7998 18.2768 9.7998 19.05C9.7998 19.8232 10.4266 20.45 11.1998 20.45C11.973 20.45 12.5998 19.8232 12.5998 19.05C12.599 18.2772 11.9726 17.6509 11.1998 17.65ZM11.1998 19.75C10.8132 19.75 10.4998 19.4366 10.4998 19.05C10.4998 18.6634 10.8132 18.35 11.1998 18.35C11.5864 18.35 11.8998 18.6634 11.8998 19.05C11.8994 19.4364 11.5862 19.7496 11.1998 19.75Z" fill="#5C5C5C"/>
<path d="M16.4501 12.4C15.2903 12.4 14.3501 13.3402 14.3501 14.5C14.3501 15.6598 15.2903 16.6 16.4501 16.6C17.6099 16.6 18.5501 15.6598 18.5501 14.5C18.5488 13.3407 17.6094 12.4013 16.4501 12.4ZM16.4501 15.9C15.6769 15.9 15.0501 15.2732 15.0501 14.5C15.0501 13.7268 15.6769 13.1 16.4501 13.1C17.2233 13.1 17.8501 13.7268 17.8501 14.5C17.8493 15.2729 17.2229 15.8992 16.4501 15.9Z" fill="#5C5C5C"/>
<path d="M10.5 0.5C4.70102 0.5 0 5.20102 0 11C0 16.799 4.70102 21.5 10.5 21.5C16.299 21.5 21 16.799 21 11C20.9934 5.20374 16.2963 0.506563 10.5 0.5ZM15.05 3.3C15.05 3.87991 14.5799 4.35 14 4.35C13.4201 4.35 12.95 3.87991 12.95 3.3C12.95 2.72009 13.4201 2.25 14 2.25C14.5796 2.25061 15.0494 2.72036 15.05 3.3ZM4.9 3.65C5.28662 3.65 5.6 3.96338 5.6 4.35C5.6 4.73662 5.28662 5.05 4.9 5.05C4.51338 5.05 4.2 4.73662 4.2 4.35C4.20044 3.9636 4.5136 3.65044 4.9 3.65ZM10.5 20.8C5.09097 20.8034 0.703369 16.4212 0.7 11.0122C0.698381 8.43516 1.71251 5.9614 3.52253 4.12705C3.50901 4.20068 3.50149 4.27519 3.5 4.35C3.49908 5.12319 4.1251 5.75074 4.89829 5.75171C5.67149 5.75267 6.29904 5.12661 6.3 4.35341C6.30092 3.58652 5.68474 2.96164 4.91789 2.95184C7.40364 1.22262 10.5501 0.742156 13.4386 1.65071C12.5237 1.96112 12.0337 2.95446 12.3442 3.86932C12.6546 4.78422 13.6479 5.27422 14.5628 4.96377C15.4777 4.65336 15.9677 3.66002 15.6573 2.74516C15.6462 2.71266 15.6342 2.6805 15.6213 2.64874C20.2351 5.47573 21.6835 11.5076 18.8565 16.1214C17.075 19.0288 13.9099 20.8009 10.5 20.8Z" fill="#5C5C5C"/>
<path d="M3.1501 12.05C2.57019 12.05 2.1001 12.5201 2.1001 13.1C2.1001 13.68 2.57019 14.15 3.1501 14.15C3.72974 14.1494 4.19949 13.6797 4.2001 13.1C4.2001 12.5201 3.73 12.05 3.1501 12.05ZM3.1501 13.45C2.95681 13.45 2.8001 13.2933 2.8001 13.1C2.8001 12.9068 2.95681 12.75 3.1501 12.75C3.34339 12.75 3.5001 12.9068 3.5001 13.1C3.49992 13.2932 3.3433 13.4499 3.1501 13.45Z" fill="#5C5C5C"/>
<path d="M7.7002 8.90002C6.73371 8.90002 5.9502 9.68354 5.9502 10.65C5.95133 11.6161 6.73415 12.3989 7.7002 12.4C8.66668 12.4 9.4502 11.6165 9.4502 10.65C9.4502 9.68354 8.66668 8.90002 7.7002 8.90002ZM7.7002 11.7C7.12029 11.7 6.6502 11.2299 6.6502 10.65C6.65081 10.0704 7.12055 9.60064 7.7002 9.60002C8.2801 9.60002 8.7502 10.0701 8.7502 10.65C8.7502 11.2299 8.2801 11.7 7.7002 11.7Z" fill="#5C5C5C"/>
<path d="M12.2499 8.19995C11.0906 8.20122 10.1512 9.14066 10.1499 10.3C10.1499 11.4598 11.0901 12.4 12.2499 12.4C13.4097 12.4 14.3499 11.4598 14.3499 10.3C14.3499 9.14014 13.4097 8.19995 12.2499 8.19995ZM12.2499 11.7C11.4767 11.7 10.8499 11.0731 10.8499 10.3C10.8499 9.52676 11.4767 8.89995 12.2499 8.89995C13.0227 8.90078 13.6491 9.52711 13.6499 10.3C13.6499 11.0731 13.0231 11.7 12.2499 11.7Z" fill="#5C5C5C"/>
<path d="M17.1502 7.15002C15.7978 7.1516 14.7018 8.24758 14.7002 9.60002C14.7002 10.9531 15.7971 12.05 17.1502 12.05C18.5033 12.05 19.6002 10.9531 19.6002 9.60002C19.6002 8.24692 18.5033 7.15002 17.1502 7.15002ZM17.1502 11.35C16.1837 11.35 15.4002 10.5665 15.4002 9.60002C15.4002 8.63354 16.1837 7.85002 17.1502 7.85002C18.1162 7.85116 18.8991 8.63398 18.9002 9.60002C18.9002 10.5665 18.1167 11.35 17.1502 11.35Z" fill="#5C5C5C"/>
<path d="M16.8 4.69995C16.2204 4.70056 15.7506 5.17031 15.75 5.74995C15.75 6.32986 16.2201 6.79995 16.8 6.79995C17.3799 6.79995 17.85 6.32986 17.85 5.74995C17.85 5.17004 17.3799 4.69995 16.8 4.69995ZM16.8 6.09995C16.6067 6.09995 16.45 5.94324 16.45 5.74995C16.45 5.55666 16.6067 5.39995 16.8 5.39995C16.9932 5.40013 17.1498 5.55675 17.15 5.74995C17.15 5.94324 16.9933 6.09995 16.8 6.09995Z" fill="#5C5C5C"/>
</g>
<defs>
<clipPath id="clip0">
<rect width="21" height="21" fill="white" transform="translate(0 0.5)"/>
</clipPath>
</defs>
</svg>
