<svg width="21" height="22" viewBox="0 0 21 22" fill="none" xmlns="http://www.w3.org/2000/svg">
<g clip-path="url(#clip0)">
<path d="M12.3321 12.074V3.25496C12.3321 1.73342 11.0987 0.5 9.57719 0.5C8.05564 0.5 6.82223 1.73342 6.82223 3.25496V12.0701C4.44101 13.5893 3.74218 16.7513 5.26142 19.1325C6.19898 20.602 7.82039 21.4928 9.56348 21.4961L9.59089 21.5C12.4155 21.4947 14.701 19.2006 14.6957 16.376C14.6924 14.633 13.8016 13.0115 12.3321 12.074ZM7.4253 20.1387C5.35184 18.9416 4.64146 16.2902 5.83856 14.2168C6.21905 13.5578 6.76627 13.0106 7.4253 12.6301C7.54694 12.5598 7.62164 12.4298 7.62111 12.2894V3.25496C7.62111 2.166 8.50389 1.28322 9.59285 1.28322C10.6818 1.28322 11.5646 2.166 11.5646 3.25496V12.2894C11.5641 12.4298 11.6388 12.5598 11.7604 12.6301C13.8339 13.8272 14.5442 16.4785 13.3471 18.5519C12.1501 20.6254 9.49872 21.3358 7.4253 20.1387Z" fill="#5C5C5C"/>
<path d="M9.9824 13.5699V7.62916C9.9824 7.41289 9.80706 7.23755 9.59079 7.23755C9.37453 7.23755 9.19918 7.41289 9.19918 7.62916V13.5699C7.71984 13.782 6.69255 15.1532 6.9047 16.6326C7.0962 17.9679 8.24185 18.9582 9.59079 18.9545C11.0853 18.9586 12.3001 17.7504 12.3043 16.256C12.308 14.907 11.3177 13.7614 9.9824 13.5699ZM9.59079 18.1674C8.52885 18.1674 7.668 17.3065 7.668 16.2446C7.67015 15.1835 8.52973 14.3239 9.59079 14.3218C10.6527 14.3218 11.5136 15.1826 11.5136 16.2446C11.5136 17.3065 10.6527 18.1674 9.59079 18.1674Z" fill="#5C5C5C"/>
<path d="M16.1502 3.19226H13.7026C13.4864 3.19226 13.311 3.3676 13.311 3.58387C13.311 3.80014 13.4864 3.97548 13.7026 3.97548H16.1502C16.3665 3.97548 16.5418 3.80014 16.5418 3.58387C16.5418 3.3676 16.3665 3.19226 16.1502 3.19226Z" fill="#5C5C5C"/>
<path d="M15.6291 5.15039H14.1919C13.9756 5.15039 13.8003 5.32573 13.8003 5.542C13.8003 5.75826 13.9756 5.93361 14.1919 5.93361H15.6291C15.8454 5.93361 16.0207 5.75826 16.0207 5.542C16.0207 5.32573 15.8454 5.15039 15.6291 5.15039Z" fill="#5C5C5C"/>
<path d="M16.1502 7.1084H13.7026C13.4864 7.1084 13.311 7.28374 13.311 7.50001C13.311 7.71627 13.4864 7.89161 13.7026 7.89161H16.1502C16.3665 7.89161 16.5418 7.71627 16.5418 7.50001C16.5418 7.28374 16.3665 7.1084 16.1502 7.1084Z" fill="#5C5C5C"/>
<path d="M15.6291 9.06641H14.1919C13.9756 9.06641 13.8003 9.24175 13.8003 9.45801C13.8003 9.67428 13.9756 9.84962 14.1919 9.84962H15.6291C15.8454 9.84962 16.0207 9.67428 16.0207 9.45801C16.0207 9.24175 15.8454 9.06641 15.6291 9.06641Z" fill="#5C5C5C"/>
<path d="M16.1502 11.0245H13.7026C13.4864 11.0245 13.311 11.1999 13.311 11.4161C13.311 11.6324 13.4864 11.8077 13.7026 11.8077H16.1502C16.3665 11.8077 16.5418 11.6324 16.5418 11.4161C16.5418 11.1999 16.3665 11.0245 16.1502 11.0245Z" fill="#5C5C5C"/>
</g>
<defs>
<clipPath id="clip0">
<rect width="21" height="21" fill="white" transform="translate(0 0.5)"/>
</clipPath>
</defs>
</svg>
