<svg width="21" height="22" viewBox="0 0 21 22" fill="none" xmlns="http://www.w3.org/2000/svg">
<g clip-path="url(#clip0)">
<path d="M14.1696 8.83577C14.1273 8.83577 14.0852 8.83655 14.0432 8.83737C12.3611 5.98436 9.24512 2.49828 9.24512 2.49828C9.24512 2.49828 8.13638 3.73642 7.32009 4.75824C7.0142 4.1588 6.57779 3.47577 6.01345 2.7146C5.30688 1.76139 4.17727 0.5 4.17727 0.5C4.17727 0.5 2.92227 1.90175 2.14597 2.98169C1.03744 4.52384 0.498535 5.68417 0.498535 6.52905C0.498535 8.40584 1.91132 9.95865 3.72921 10.1804C3.23009 11.2337 2.97842 12.1237 2.97842 12.8423C2.97842 16.2883 5.77442 19.0934 9.21698 19.1086C10.3781 20.5649 12.1666 21.5 14.1696 21.5C17.6611 21.5 20.5017 18.6594 20.5017 15.1679C20.5017 11.6763 17.6611 8.83577 14.1696 8.83577ZM4.17727 8.97727C2.82732 8.97727 1.72904 7.87904 1.72904 6.52909C1.72904 5.60546 3.08412 3.6751 4.176 2.36473C4.92564 3.26938 6.05209 4.76423 6.46795 5.85676C6.28752 6.09654 6.10394 6.34542 5.91986 6.60148C5.30881 7.45157 4.79209 8.24125 4.37049 8.96887C4.30626 8.97383 4.24187 8.97727 4.17727 8.97727ZM4.20889 12.8423C4.20889 10.6867 7.50228 6.39181 9.24319 4.3567C9.99427 5.23968 11.5251 7.10946 12.7066 9.00668C9.9181 9.66871 7.83746 12.1798 7.83746 15.1679C7.83746 16.1104 8.0448 17.0053 8.41566 17.8098C6.03204 17.4132 4.20889 15.3368 4.20889 12.8423ZM14.1696 20.2695C11.3566 20.2695 9.06797 17.9809 9.06797 15.1679C9.06797 12.3548 11.3566 10.0662 14.1696 10.0662C16.9826 10.0662 19.2712 12.3548 19.2712 15.1679C19.2712 17.9809 16.9826 20.2695 14.1696 20.2695Z" fill="#5C5C5C"/>
<path d="M12.9069 13.5795C12.682 13.4783 12.417 13.4277 12.1118 13.4277H10.5698V16.8008H11.5239V15.919H12.1118C12.417 15.919 12.682 15.8684 12.9069 15.7672C13.1317 15.666 13.3052 15.5223 13.4273 15.3359C13.5493 15.1497 13.6104 14.9296 13.6104 14.6758C13.6104 14.422 13.5493 14.2011 13.4273 14.0132C13.3052 13.8253 13.1317 13.6807 12.9069 13.5795ZM12.4973 15.0396C12.3976 15.1247 12.2499 15.1672 12.0539 15.1672H11.5239V14.1794H12.0539C12.2498 14.1794 12.3976 14.2228 12.4973 14.3095C12.5968 14.3962 12.6466 14.5184 12.6466 14.6758C12.6466 14.8332 12.5968 14.9545 12.4973 15.0396Z" fill="#5C5C5C"/>
<path d="M16.8098 14.6951H15.5088V13.4277H14.5547V16.8009H15.5088V15.4853H16.8098V16.8009H17.764V13.4277H16.8098V14.6951Z" fill="#5C5C5C"/>
<path d="M13.6797 2.96094H14.9102V4.19141H13.6797V2.96094Z" fill="#5C5C5C"/>
<path d="M13.6797 0.5H14.9102V1.73047H13.6797V0.5Z" fill="#5C5C5C"/>
<path d="M12.4492 1.73047H13.6797V2.96094H12.4492V1.73047Z" fill="#5C5C5C"/>
<path d="M14.9102 1.73047H16.1406V2.96094H14.9102V1.73047Z" fill="#5C5C5C"/>
<path d="M16.1406 5.42188H17.3711V6.65234H16.1406V5.42188Z" fill="#5C5C5C"/>
<path d="M17.3711 4.19141H18.6016V5.42188H17.3711V4.19141Z" fill="#5C5C5C"/>
</g>
<defs>
<clipPath id="clip0">
<rect width="21" height="21" fill="white" transform="translate(0 0.5)"/>
</clipPath>
</defs>
</svg>
