<svg width="21" height="22" viewBox="0 0 21 22" fill="none" xmlns="http://www.w3.org/2000/svg">
<g clip-path="url(#clip0)">
<path d="M10.5 0.5C4.7104 0.5 0 5.2104 0 11C0 16.7896 4.7104 21.5 10.5 21.5C16.2896 21.5 21 16.7896 21 11C21 5.2104 16.2896 0.5 10.5 0.5ZM10.5 20.1875C5.43392 20.1875 1.31251 16.0661 1.31251 11C1.31251 5.93392 5.43392 1.81251 10.5 1.81251C15.5661 1.81251 19.6875 5.93392 19.6875 11C19.6875 16.0661 15.5661 20.1875 10.5 20.1875Z" fill="#5C5C5C"/>
<path d="M11.1563 4.4375H9.84375V11.2717L13.9735 15.4015L14.9015 14.4735L11.1563 10.7283V4.4375Z" fill="#5C5C5C"/>
</g>
<defs>
<clipPath id="clip0">
<rect width="21" height="21" fill="white" transform="translate(0 0.5)"/>
</clipPath>
</defs>
</svg>
