<svg width="21" height="22" viewBox="0 0 21 22" fill="none" xmlns="http://www.w3.org/2000/svg">
<g clip-path="url(#clip0)">
<path d="M11.9091 18.2188L7.43745 11.3063V5.75001C7.43745 5.50839 7.24155 5.3125 6.99993 5.3125H4.81245C4.57082 5.3125 4.37493 5.50839 4.37493 5.75001V11.3185L0.297896 18.2494C0.102867 18.5809 1.30651e-09 18.9585 1.30651e-09 19.3431C-4.10143e-05 20.5343 0.965631 21.5 2.15681 21.5H10.1237C10.5331 21.4999 10.9338 21.3816 11.2777 21.1593C12.2641 20.5217 12.5468 19.2051 11.9091 18.2188ZM10.1237 20.625H2.15681C1.92749 20.6254 1.70223 20.5642 1.50458 20.4479C0.894428 20.0889 0.690867 19.3032 1.04992 18.693L5.18958 11.6593C5.22912 11.5921 5.24996 11.5155 5.24996 11.4375V6.18753H6.56246V11.4375C6.56242 11.5218 6.58674 11.6043 6.63247 11.6751L11.1737 18.6939C11.3047 18.8963 11.3745 19.1322 11.3745 19.3734C11.3747 20.0644 10.8148 20.6248 10.1237 20.625Z" fill="#5C5C5C"/>
<path d="M6.30193 13.2194L5.5477 12.7762L1.83288 19.0907C1.79326 19.158 1.77238 19.2348 1.77246 19.313C1.77271 19.5546 1.9688 19.7503 2.21043 19.75H5.24972V18.875H2.97475L6.30193 13.2194Z" fill="#5C5C5C"/>
<path d="M19.9439 10.5625H13.125C12.1585 10.5625 11.375 11.346 11.375 12.3125V19.3125C11.3764 20.5201 12.355 21.4986 13.5625 21.5H17.5C18.7075 21.4986 19.686 20.52 19.6875 19.3125V13.3686L20.6911 12.3654C20.8887 12.1675 20.9996 11.8993 20.9998 11.6196C21.0002 11.0361 20.5274 10.5628 19.9439 10.5625ZM20.0721 11.7468L18.9407 12.8782C18.8587 12.9602 18.8125 13.0715 18.8125 13.1875V19.3125C18.8125 20.0374 18.2249 20.625 17.5 20.625H13.5625C12.8377 20.625 12.25 20.0374 12.25 19.3125V12.3125C12.25 11.8293 12.6418 11.4375 13.125 11.4375H19.9439C19.9921 11.4375 20.0383 11.4566 20.0723 11.4907C20.143 11.5615 20.1429 11.6762 20.0721 11.7468Z" fill="#5C5C5C"/>
<path d="M17.0625 13.1875V18.875H15.75V19.75H17.5C17.7416 19.75 17.9375 19.5541 17.9375 19.3125V13.1875H17.0625Z" fill="#5C5C5C"/>
<path d="M12.25 6.83675V0.937514C12.25 0.695891 12.0541 0.5 11.8125 0.5H8.75C8.50838 0.5 8.31249 0.695891 8.31249 0.937514V6.96103C7.77855 7.12542 7.26491 7.34953 6.78125 7.62909L7.21876 8.3864C7.73277 8.08961 8.28468 7.86399 8.85939 7.71571C9.05266 7.6658 9.18768 7.4914 9.18752 7.29178V1.37499H11.375V7.18981C11.3751 7.39981 11.5244 7.58016 11.7307 7.61945C13.2648 7.91271 14.6442 8.74299 15.6214 9.9614L16.3035 9.41364C15.2739 8.13063 13.8486 7.22455 12.25 6.83675Z" fill="#5C5C5C"/>
<path d="M18.5937 6.625C17.748 6.625 17.0625 7.31058 17.0625 8.15624C17.0625 9.00194 17.7481 9.68747 18.5937 9.68747C19.4394 9.68747 20.125 9.0019 20.125 8.15624C20.125 7.31058 19.4394 6.625 18.5937 6.625ZM18.5937 8.81253C18.2313 8.81253 17.9375 8.51873 17.9375 8.15628C17.9375 7.79382 18.2313 7.50003 18.5937 7.50003C18.9562 7.50003 19.25 7.79382 19.25 8.15628C19.25 8.51873 18.9562 8.81253 18.5937 8.81253Z" fill="#5C5C5C"/>
<path d="M17.0625 3.5625C16.3376 3.5625 15.75 4.15013 15.75 4.875C15.75 5.59987 16.3376 6.18751 17.0625 6.18751C17.7874 6.18751 18.375 5.59987 18.375 4.875C18.375 4.15013 17.7874 3.5625 17.0625 3.5625ZM17.0625 5.31248C16.8209 5.31248 16.625 5.11659 16.625 4.87496C16.625 4.63334 16.8209 4.43749 17.0625 4.43749C17.3041 4.43749 17.5 4.63338 17.5 4.875C17.5 5.11663 17.3041 5.31248 17.0625 5.31248Z" fill="#5C5C5C"/>
<path d="M1.53124 4C0.685535 4 0 4.68558 0 5.53124C0 6.37694 0.685535 7.06252 1.53124 7.06252C2.37694 7.06252 3.06247 6.37694 3.06247 5.53128C3.06247 4.68558 2.37694 4 1.53124 4ZM1.53124 6.18753C1.16878 6.18753 0.874986 5.89374 0.874986 5.53128C0.874986 5.16883 1.16878 4.87503 1.53124 4.87503C1.89369 4.87503 2.18749 5.16883 2.18749 5.53128C2.18749 5.89374 1.89369 6.18753 1.53124 6.18753Z" fill="#5C5C5C"/>
<path d="M3.5 0.9375C2.77513 0.9375 2.1875 1.52513 2.1875 2.25C2.1875 2.97487 2.77513 3.5625 3.5 3.5625C4.22487 3.5625 4.8125 2.97487 4.8125 2.25C4.8125 1.52513 4.22487 0.9375 3.5 0.9375ZM3.5 2.68747C3.25838 2.68747 3.06249 2.49158 3.06249 2.24996C3.06249 2.00838 3.25838 1.81249 3.5 1.81249C3.74162 1.81249 3.93751 2.00838 3.93751 2.25C3.93751 2.49162 3.74162 2.68747 3.5 2.68747Z" fill="#5C5C5C"/>
<path d="M14.4375 13.1875H13.125V14.0625H14.4375V13.1875Z" fill="#5C5C5C"/>
<path d="M14 14.9375H13.125V15.8125H14V14.9375Z" fill="#5C5C5C"/>
<path d="M14.4375 16.6875H13.125V17.5625H14.4375V16.6875Z" fill="#5C5C5C"/>
<path d="M14 18.4375H13.125V19.3125H14V18.4375Z" fill="#5C5C5C"/>
<path d="M1.74999 8.375H0.875V9.24999H1.74999V8.375Z" fill="#5C5C5C"/>
<path d="M3.06249 10.5625H2.1875V11.4375H3.06249V10.5625Z" fill="#5C5C5C"/>
<path d="M10.5 12.3125H9.625V13.1875H10.5V12.3125Z" fill="#5C5C5C"/>
<path d="M9.62499 10.5625H8.75V11.4375H9.62499V10.5625Z" fill="#5C5C5C"/>
<path d="M9.18749 8.8125H8.3125V9.68749H9.18749V8.8125Z" fill="#5C5C5C"/>
<path d="M9.62499 18.4375H8.75V19.3125H9.62499V18.4375Z" fill="#5C5C5C"/>
<path d="M8.31249 16.6875H7.4375V17.5625H8.31249V16.6875Z" fill="#5C5C5C"/>
</g>
<defs>
<clipPath id="clip0">
<rect width="21" height="21" fill="white" transform="translate(0 0.5)"/>
</clipPath>
</defs>
</svg>
