<svg width="21" height="22" viewBox="0 0 21 22" fill="none" xmlns="http://www.w3.org/2000/svg">
<g clip-path="url(#clip0)">
<path d="M18.5767 0.5C18.3537 0.5 18.1729 0.680797 18.1729 0.90384V11.0489L16.9768 10.7499C16.4274 10.6127 15.8532 10.6348 15.3168 10.814L14.3122 11.1487C13.9213 11.2789 13.5032 11.2949 13.1032 11.195L11.2205 10.7245C10.7491 10.6067 10.2507 10.6067 9.7792 10.7245L7.8965 11.195C7.49643 11.2949 7.0784 11.2789 6.68756 11.1487L5.68309 10.814C5.14644 10.6348 4.57231 10.6127 4.02278 10.75L2.8268 11.0489V8.98076H4.03832C4.26133 8.98076 4.44216 8.79996 4.44216 8.57692C4.44216 8.35388 4.26133 8.17308 4.03832 8.17308H2.82672V7.3654H4.84596C5.06896 7.3654 5.2498 7.1846 5.2498 6.96156C5.2498 6.73852 5.06896 6.55772 4.84596 6.55772H2.82672V5.75H4.03824C4.26124 5.75 4.44208 5.5692 4.44208 5.34616C4.44208 5.12312 4.26124 4.94232 4.03824 4.94232H2.82672V4.1346H4.84596C5.06896 4.1346 5.2498 3.9538 5.2498 3.73076C5.2498 3.50772 5.06896 3.32692 4.84596 3.32692H2.82672V2.51924H4.03824C4.26124 2.51924 4.44208 2.33844 4.44208 2.1154C4.44208 1.89236 4.26124 1.71156 4.03824 1.71156H2.82672V0.90384C2.82672 0.680797 2.64588 0.5 2.42288 0.5C2.19988 0.5 2.01904 0.680797 2.01904 0.90384V11.5662V18.6597C2.01904 18.8186 2.03278 18.9742 2.05797 19.126C2.05973 19.1407 2.0624 19.1551 2.06572 19.1693C2.30656 20.493 3.46714 21.5 4.85929 21.5H16.1403C17.7064 21.5 18.9806 20.2259 18.9806 18.6597V11.5662V0.90384C18.9806 0.680797 18.7997 0.5 18.5767 0.5ZM18.1729 18.6597C18.1729 19.7805 17.2611 20.6923 16.1403 20.6923H4.85929C4.03065 20.6923 3.3167 20.1936 3.00059 19.4808H4.84596C5.06896 19.4808 5.2498 19.3 5.2498 19.077C5.2498 18.8539 5.06896 18.6731 4.84596 18.6731H2.82705C2.82701 18.6686 2.82672 18.6643 2.82672 18.6598V11.8815L4.21851 11.5336C4.6187 11.4336 5.0366 11.4497 5.42748 11.5802L6.43224 11.9151C6.96905 12.0938 7.54303 12.1159 8.09227 11.9786L9.97501 11.5081C10.3183 11.4223 10.6813 11.4223 11.0246 11.5081L12.9074 11.9786C13.4566 12.1159 14.0306 12.0939 14.5674 11.9151L15.5724 11.5802C15.9629 11.4498 16.381 11.4337 16.781 11.5336L18.1729 11.8815V18.6597H18.1729Z" fill="#5C5C5C"/>
<path d="M6.45337 18.9981C6.44857 18.9723 6.44045 18.9468 6.43036 18.9226C6.42027 18.898 6.40776 18.8745 6.3932 18.8528C6.37872 18.8305 6.36174 18.8099 6.34312 18.7914C6.32454 18.7728 6.30395 18.7558 6.28172 18.7413C6.2599 18.7268 6.23648 18.7142 6.21187 18.7041C6.18763 18.694 6.16224 18.6859 6.1364 18.6811C6.00515 18.6544 5.86582 18.6977 5.7721 18.7914C5.75352 18.8099 5.73658 18.8305 5.72202 18.8528C5.70709 18.8746 5.69495 18.898 5.68486 18.9226C5.67477 18.9468 5.66669 18.9723 5.66189 18.9981C5.6566 19.024 5.65381 19.0506 5.65381 19.0769C5.65381 19.1031 5.6566 19.1298 5.66189 19.1556C5.66669 19.1815 5.67477 19.2069 5.68486 19.2315C5.69495 19.2558 5.70709 19.2792 5.72202 19.301C5.73654 19.3232 5.75352 19.3438 5.7721 19.3624C5.79068 19.381 5.81127 19.3979 5.83354 19.4125C5.85536 19.4274 5.87874 19.4396 5.90335 19.4497C5.92763 19.4597 5.95302 19.4678 5.97886 19.4727C6.0047 19.4779 6.03136 19.4807 6.05761 19.4807C6.08382 19.4807 6.11052 19.4779 6.13636 19.4727C6.1622 19.4678 6.18763 19.4597 6.21183 19.4497C6.23648 19.4396 6.2599 19.4274 6.28168 19.4125C6.30391 19.398 6.3245 19.381 6.34308 19.3624C6.41818 19.2873 6.46145 19.1831 6.46145 19.0769C6.46141 19.0506 6.45862 19.024 6.45337 18.9981Z" fill="#5C5C5C"/>
</g>
<defs>
<clipPath id="clip0">
<rect width="21" height="21" fill="white" transform="translate(0 0.5)"/>
</clipPath>
</defs>
</svg>
