<svg width="15" height="20" viewBox="0 0 15 20" fill="none" xmlns="http://www.w3.org/2000/svg">
<path d="M9.67924 0L14.9846 6V18C14.9846 18.5304 14.7983 19.0391 14.4667 19.4142C14.135 19.7893 13.6852 20 13.2162 20H2.60538C2.13635 20 1.68654 19.7893 1.35489 19.4142C1.02323 19.0391 0.836914 18.5304 0.836914 18V2C0.836914 1.46957 1.02323 0.960859 1.35489 0.585786C1.68654 0.210714 2.13635 0 2.60538 0H9.67924ZM13.2162 18V7H8.79501V2H2.60538V18H13.2162ZM6.95581 10.31C6.74359 9.54 6.27495 7.08 7.51287 7.04C8.7508 7 7.93731 10.16 7.93731 10.16C8.28216 11.65 9.72346 12.72 9.72346 12.72C10.1656 12.57 12.6856 12.24 12.3319 13.72C11.9517 15.2 9.23713 13.81 9.23713 13.81C7.51287 13.95 6.22189 14.47 6.22189 14.47C5.22271 16.58 4.05552 17.5 3.57804 16.61C2.9856 15.5 5.46145 14.07 5.46145 14.07C6.74359 11.72 6.93812 10.35 6.95581 10.31ZM7.53056 11.15C7.17686 12.45 6.46948 13.84 6.46948 13.84C7.22108 13.5 8.86575 13.11 8.86575 13.11C7.85772 12.11 7.54824 11.16 7.53056 11.15ZM10.307 13.32C10.307 13.32 11.8545 13.97 11.8898 13.71C11.9517 13.44 10.7138 13.2 10.307 13.32ZM5.30229 14.81C4.62143 15.11 3.9671 16.39 4.12626 16.39C4.28542 16.4 4.93091 15.79 5.30229 14.81ZM7.53056 9.26C7.53056 9.21 7.91078 7.58 7.53056 7.53C7.26529 7.5 7.52172 9.22 7.53056 9.26Z" fill="black"/>
</svg>
