<svg width="18" height="19" viewBox="0 0 18 19" fill="none" xmlns="http://www.w3.org/2000/svg">
<g clip-path="url(#clip0)">
<path d="M10.4062 8.65625C10.2122 8.65625 10.0547 8.81375 10.0547 9.00781C10.0547 9.20187 10.2122 9.35938 10.4062 9.35938C10.6003 9.35938 10.7578 9.20187 10.7578 9.00781C10.7578 8.81375 10.6003 8.65625 10.4062 8.65625Z" fill="#272727"/>
<path d="M9 6.54688C8.80594 6.54688 8.64844 6.70437 8.64844 6.89844C8.64844 7.0925 8.80594 7.25 9 7.25C9.19406 7.25 9.35156 7.0925 9.35156 6.89844C9.35156 6.70437 9.19406 6.54688 9 6.54688Z" fill="#272727"/>
<path d="M4.78125 15.6875C4.58719 15.6875 4.42969 15.845 4.42969 16.0391C4.42969 16.2331 4.58719 16.3906 4.78125 16.3906C4.97531 16.3906 5.13281 16.2331 5.13281 16.0391C5.13281 15.845 4.97531 15.6875 4.78125 15.6875Z" fill="#272727"/>
<path d="M15.9754 14.8324L11.4608 6.80636V2.54912C11.87 2.40403 12.1639 2.01305 12.1639 1.55469C12.1639 0.973133 11.6908 0.5 11.1092 0.5H6.89046C6.30891 0.5 5.83578 0.973133 5.83578 1.55469C5.83578 2.01305 6.12965 2.40403 6.5389 2.54912V6.80636L2.02428 14.8324C1.59087 15.6029 1.59857 16.5185 2.04481 17.2815C2.49101 18.0445 3.28512 18.5 4.16902 18.5H13.8307C14.7146 18.5 15.5086 18.0445 15.9549 17.2815C16.4011 16.5185 16.4088 15.6029 15.9754 14.8324ZM7.19689 7.07077C7.22649 7.01818 7.24203 6.9588 7.24203 6.89844V2.60938H7.59359C7.78772 2.60938 7.94515 2.45195 7.94515 2.25781C7.94515 2.06368 7.78772 1.90625 7.59359 1.90625H6.89046C6.69661 1.90625 6.5389 1.74854 6.5389 1.55469C6.5389 1.36084 6.69661 1.20312 6.89046 1.20312H11.1092C11.3031 1.20312 11.4608 1.36084 11.4608 1.55469C11.4608 1.74854 11.3031 1.90625 11.1092 1.90625H10.4061C10.212 1.90625 10.0545 2.06368 10.0545 2.25781C10.0545 2.45195 10.212 2.60938 10.4061 2.60938H10.7577V6.89844C10.7577 6.95884 10.7732 7.01814 10.8028 7.07077L12.8749 10.7547C11.6095 10.6522 10.3484 10.9081 9.18982 11.5081C7.70039 12.2789 6.04232 12.4146 4.47889 11.9028L7.19689 7.07077ZM15.3479 16.9265C15.0292 17.4715 14.462 17.7969 13.8307 17.7969H4.16902C3.53768 17.7969 2.97047 17.4715 2.65178 16.9265C2.33302 16.3815 2.3275 15.7275 2.63712 15.1771L4.12803 12.5266C4.8514 12.7792 5.59896 12.9067 6.35823 12.9067C6.47063 12.9067 6.5833 12.9039 6.69619 12.8983C7.67723 12.8498 8.62493 12.5921 9.51305 12.1325C10.701 11.5174 12.0077 11.3051 13.3023 11.5144L15.3626 15.1771C15.6722 15.7275 15.6667 16.3815 15.3479 16.9265Z" fill="#272727"/>
<path d="M7.59375 8.65625C7.0122 8.65625 6.53906 9.12938 6.53906 9.71094C6.53906 10.2925 7.0122 10.7656 7.59375 10.7656C8.1753 10.7656 8.64844 10.2925 8.64844 9.71094C8.64844 9.12938 8.1753 8.65625 7.59375 8.65625ZM7.59375 10.0625C7.3999 10.0625 7.24219 9.90479 7.24219 9.71094C7.24219 9.51709 7.3999 9.35938 7.59375 9.35938C7.7876 9.35938 7.94531 9.51709 7.94531 9.71094C7.94531 9.90479 7.7876 10.0625 7.59375 10.0625Z" fill="#272727"/>
<path d="M13.2188 15.6875H6.1875C5.99337 15.6875 5.83594 15.8449 5.83594 16.0391C5.83594 16.2332 5.99337 16.3906 6.1875 16.3906H13.2188C13.4129 16.3906 13.5703 16.2332 13.5703 16.0391C13.5703 15.8449 13.4129 15.6875 13.2188 15.6875Z" fill="#272727"/>
</g>
<defs>
<clipPath id="clip0">
<rect width="18" height="18" fill="#272727" transform="translate(0 0.5)"/>
</clipPath>
</defs>
</svg>
