<svg width="18" height="19" viewBox="0 0 18 19" fill="none" xmlns="http://www.w3.org/2000/svg">
<g clip-path="url(#clip0)">
<path d="M15.3639 3.136C13.6641 1.43612 11.404 0.5 9.00007 0.5C6.59613 0.5 4.33605 1.43612 2.63624 3.136C0.936366 4.83584 0.000244141 7.09592 0.000244141 9.49986C0.000244141 12.1835 1.17486 14.6881 3.22981 16.4054L3.02436 17.1721C2.95166 17.4435 2.98931 17.7276 3.13046 17.972C3.27161 18.2164 3.49879 18.3911 3.77012 18.4638C3.8612 18.4882 3.95271 18.4999 4.04285 18.4999C4.50845 18.4999 4.9357 18.1887 5.0618 17.7181L5.09123 17.6083C6.30332 18.1925 7.64584 18.4997 9.00007 18.4997C10.3506 18.4997 11.6928 18.1919 12.9085 17.6065L12.9384 17.7181C13.0111 17.9895 13.1857 18.2166 13.4302 18.3578C13.5933 18.4519 13.774 18.5 13.9568 18.5C14.048 18.5 14.1397 18.488 14.23 18.4639C14.7917 18.3134 15.1263 17.7339 14.9758 17.1722L14.7704 16.4056C15.7468 15.589 16.5516 14.5585 17.1048 13.4125C17.6904 12.1997 17.9999 10.8467 17.9999 9.49993C17.9999 7.09592 17.0638 4.83584 15.3639 3.136ZM3.95205 17.7847C3.86208 17.7606 3.78657 17.7023 3.73932 17.6205C3.69211 17.5387 3.67938 17.4441 3.70346 17.3542L5.15925 11.921C5.18337 11.831 5.24169 11.7555 5.3235 11.7083C5.37827 11.6767 5.4387 11.6605 5.49973 11.6605C5.52983 11.6605 5.5601 11.6644 5.58984 11.6724H5.58987C5.67984 11.6965 5.75538 11.7548 5.8026 11.8366C5.84985 11.9185 5.86257 12.013 5.83849 12.103L4.38267 17.5362C4.33246 17.7233 4.13932 17.8348 3.95205 17.7847ZM7.33651 9.2287L7.24552 9.56827C7.19532 9.75555 7.00211 9.86692 6.81497 9.81686L6.13605 9.63493C6.13598 9.63489 6.13587 9.63486 6.1358 9.63486C6.13573 9.63486 6.13563 9.63482 6.13556 9.63482L5.45663 9.45289C5.36671 9.42877 5.29119 9.37045 5.24394 9.28868C5.19669 9.20687 5.18397 9.1123 5.20805 9.02234L5.29903 8.68277L7.33651 9.2287ZM9.00007 17.7966C7.70655 17.7966 6.42485 17.4928 5.27671 16.916L5.70659 15.3117C6.70803 15.8806 7.83733 16.1794 9.00007 16.1794C10.1611 16.1794 11.2902 15.8803 12.2934 15.311L12.7229 16.9142C11.571 17.4922 10.2897 17.7966 9.00007 17.7966ZM12.0951 13.2126C12.005 13.2367 11.9105 13.224 11.8287 13.1767C11.7469 13.1295 11.6886 13.054 11.6645 12.964L10.5726 8.8891C10.4517 8.43781 10.5148 7.96458 10.7504 7.55653C10.9258 7.25275 11.1803 7.01366 11.4851 6.86143L13.1138 12.9397L12.0951 13.2126ZM14.0481 17.7847C13.958 17.8088 13.8635 17.796 13.7817 17.7488C13.6999 17.7016 13.6416 17.6261 13.6175 17.5361L12.6166 13.8008L13.2958 13.6188L14.2967 17.3541C14.3468 17.5413 14.2353 17.7345 14.0481 17.7847ZM14.568 15.6503L14.0816 13.8346C15.1133 12.6257 15.6797 11.0934 15.6797 9.49986C15.6797 6.44393 13.6142 3.78244 10.6568 3.02758C10.4685 2.97952 10.2772 3.09318 10.2292 3.28126C10.1812 3.46938 10.2948 3.66084 10.4829 3.70886C13.1287 4.3842 14.9765 6.76557 14.9765 9.4999C14.9765 10.7584 14.5816 11.9741 13.8542 12.986L12.0642 6.30573C12.0139 6.11821 11.8211 6.0068 11.6336 6.05715C10.3229 6.40835 9.54231 7.7604 9.89351 9.0711L10.9854 13.146C11.0581 13.4174 11.2328 13.6446 11.4772 13.7857C11.6159 13.8658 11.7673 13.9125 11.9219 13.9248L12.1046 14.6066C11.1684 15.1763 10.1003 15.4763 9.0001 15.4763C7.89798 15.4763 6.82956 15.1765 5.89541 14.6072L6.51766 12.2849C6.59036 12.0136 6.55268 11.7295 6.41156 11.4851C6.33148 11.3464 6.22369 11.2303 6.09587 11.1424L6.29344 10.4051L6.63304 10.4961C6.72413 10.5205 6.81561 10.5321 6.90575 10.5321C7.37135 10.5321 7.79859 10.2209 7.92469 9.75031L8.10599 9.07363C8.10624 9.07279 8.10648 9.07198 8.10669 9.07114C8.10694 9.07029 8.10715 9.06945 8.10736 9.06861L8.65266 7.03366C8.70293 6.84611 8.59163 6.65335 8.40408 6.60308C8.21649 6.5528 8.0238 6.66414 7.97353 6.85166L7.51858 8.54957L6.83944 8.3676L7.29439 6.6697C7.34466 6.48214 7.23336 6.28938 7.0458 6.23911C6.85818 6.18877 6.66553 6.30018 6.61526 6.4877L6.16031 8.1856L5.48114 8.0036L5.93605 6.30573C5.98632 6.11818 5.87502 5.92542 5.68746 5.87514C5.49984 5.82484 5.30719 5.93621 5.25691 6.12373L4.71193 8.15766C4.71158 8.15882 4.71127 8.15998 4.71098 8.16117C4.71067 8.16237 4.71035 8.16353 4.71007 8.16472L4.52905 8.84034C4.45635 9.11171 4.494 9.39576 4.63519 9.64024C4.77634 9.88467 5.00348 10.0593 5.27481 10.132L5.61441 10.223L5.41684 10.9603C5.26219 10.9725 5.11077 11.0192 4.97212 11.0993C4.72765 11.2404 4.55299 11.4676 4.48029 11.7389L4.1461 12.9861C3.4187 11.9747 3.02376 10.7588 3.02376 9.49982C3.02376 6.7656 4.87154 4.38427 7.51717 3.70886C7.70532 3.66084 7.81888 3.46938 7.77085 3.28126C7.72283 3.09314 7.53155 2.9797 7.34326 3.02758C4.38601 3.78255 2.32065 6.444 2.32065 9.49982C2.32065 11.094 2.88697 12.6265 3.91872 13.8347L3.43234 15.6499C1.692 14.0764 0.703461 11.8634 0.703461 9.49982C0.70332 4.92503 4.42524 1.20311 9.00007 1.20311C13.5749 1.20311 17.2968 4.92503 17.2968 9.49986C17.2968 11.8659 16.3083 14.0787 14.568 15.6503Z" fill="#272727"/>
<path d="M9.00011 2.82031H8.99987C8.80573 2.82031 8.64844 2.97771 8.64844 3.17188C8.64844 3.36604 8.80594 3.52344 9.00011 3.52344C9.19429 3.52344 9.35168 3.36604 9.35168 3.17188C9.35168 2.97771 9.19429 2.82031 9.00011 2.82031Z" fill="#272727"/>
</g>
<defs>
<clipPath id="clip0">
<rect width="18" height="18" fill="#272727" transform="translate(0 0.5)"/>
</clipPath>
</defs>
</svg>
