<svg width="18" height="19" viewBox="0 0 18 19" fill="none" xmlns="http://www.w3.org/2000/svg">
<g clip-path="url(#clip0)">
<path d="M15.6001 13.1H15.1303C14.8008 13.1003 14.4759 13.177 14.1811 13.3241C13.7521 13.5373 13.2481 13.5373 12.8191 13.3241C12.648 13.2401 12.4664 13.1796 12.2791 13.1441L12.8638 8.6H13.5001C13.6658 8.6 13.8001 8.46568 13.8001 8.3V7.1C13.8001 6.93433 13.6658 6.8 13.5001 6.8H12.3001V5.9C12.3001 5.82043 12.2684 5.74415 12.2122 5.6879L10.8001 4.2758V3.344L11.2549 2.9804L12.0316 4.5341L12.5686 4.2659L11.734 2.597L12.1051 2.3H13.2001C13.3658 2.3 13.5001 2.16568 13.5001 2V0.8C13.5001 0.634325 13.3658 0.5 13.2001 0.5H10.2001C8.7097 0.5018 7.5019 1.7096 7.5001 3.2C7.5001 3.36568 7.63442 3.5 7.8001 3.5H8.4001V4.2758L7.588 5.0879C7.53175 5.14415 7.5001 5.22043 7.5001 5.3V6.8H6.9001V4.4C6.89965 4.36284 6.89222 4.32613 6.8782 4.2917C6.87272 4.28004 6.8665 4.26871 6.8596 4.2578C6.8524 4.24209 6.84396 4.22694 6.8344 4.2125L5.7001 2.795V0.8C5.7001 0.634325 5.56577 0.5 5.4001 0.5H3.6001C3.43442 0.5 3.3001 0.634325 3.3001 0.8V2.795L2.1658 4.2125C2.15623 4.22694 2.1478 4.24209 2.1406 4.2578C2.1337 4.26871 2.12747 4.28004 2.122 4.2917C2.10797 4.32613 2.10055 4.36284 2.1001 4.4V6.8H0.900098C0.734423 6.8 0.600098 6.93433 0.600098 7.1V8.3C0.600098 8.46568 0.734423 8.6 0.900098 8.6H1.5364L2.7025 17.6384C2.72181 17.788 2.84924 17.9 3.0001 17.9H10.0621C10.4023 18.2814 10.889 18.4996 11.4001 18.5H11.8699C12.1994 18.4997 12.5243 18.423 12.8191 18.2759C13.2481 18.0627 13.7521 18.0627 14.1811 18.2759C14.4759 18.423 14.8008 18.4997 15.1303 18.5H15.6001C16.5938 18.499 17.3991 17.6937 17.4001 16.7V14.9C17.3991 13.9063 16.5938 13.101 15.6001 13.1ZM12.3001 1.1H12.9001V1.7H12.3001V1.1ZM13.2001 7.4V8H9.0001V7.4H13.2001ZM8.1214 2.9C8.27188 1.86744 9.15662 1.10131 10.2001 1.1H11.7001V1.856L10.3948 2.9H8.1214ZM10.2001 3.5V4.1H9.0001V3.5H10.2001ZM8.1001 5.4242L8.8243 4.7H10.3759L11.7001 6.0242V6.8H8.1001V5.4242ZM7.8001 7.4H8.4001V9.5C8.39946 9.61426 8.46381 9.71893 8.566 9.77L10.366 10.67C10.4538 10.7133 10.5203 10.7902 10.5505 10.8833C10.5816 10.9832 10.5708 11.0915 10.5205 11.1833C10.4342 11.3565 10.2238 11.4269 10.0506 11.3406C10.0503 11.3405 10.0501 11.3403 10.0498 11.3402L8.8318 10.7312C8.68292 10.6585 8.5033 10.7202 8.43055 10.8691C8.41063 10.9099 8.40021 10.9546 8.4001 11V14C8.4001 14.3314 8.13148 14.6 7.8001 14.6V11.9H7.2001V14.6H6.6001V11.9H6.0001V14.6H5.4001V11.9H4.8001V14.6C4.46871 14.6 4.2001 14.3314 4.2001 14V7.4H7.8001ZM3.9001 1.1H5.1001V2.6H3.9001V1.1ZM3.7441 3.2H5.2561L5.9761 4.1H3.0241L3.7441 3.2ZM2.7001 4.7H6.3001V6.8H2.7001V4.7ZM1.2001 8V7.4H3.6001V8H1.2001ZM9.6001 14.9V16.7C9.60062 16.9045 9.63613 17.1074 9.7051 17.3H3.2638L2.1412 8.6H3.6001V14C3.6001 14.6627 4.13736 15.2 4.8001 15.2H7.8001C8.46283 15.2 9.0001 14.6627 9.0001 14V11.4854L9.7837 11.8772C10.2572 12.1109 10.8305 11.9165 11.0642 11.443C11.0652 11.441 11.0661 11.4391 11.0671 11.4371C11.1833 11.2067 11.2031 10.9396 11.122 10.6946C11.042 10.4495 10.8669 10.247 10.636 10.1324L9.0001 9.3146V8.6H12.259L11.6782 13.1H11.4001C10.4064 13.101 9.60107 13.9063 9.6001 14.9ZM16.8001 16.7C16.8001 17.3627 16.2628 17.9 15.6001 17.9H15.1303C14.894 17.8997 14.661 17.8447 14.4496 17.7392C13.8515 17.442 13.1487 17.442 12.5506 17.7392C12.3392 17.8447 12.1062 17.8997 11.8699 17.9H11.4001C10.7374 17.9 10.2001 17.3627 10.2001 16.7V16.238C10.5291 16.5353 10.9567 16.6999 11.4001 16.7H11.8699C12.1994 16.6997 12.5243 16.623 12.8191 16.4759C13.2481 16.2627 13.7521 16.2627 14.1811 16.4759C14.4759 16.623 14.8008 16.6997 15.1303 16.7H15.6001C16.0435 16.6999 16.4711 16.5353 16.8001 16.238V16.7ZM15.6001 16.1H15.1303C14.894 16.0997 14.661 16.0447 14.4496 15.9392C13.8515 15.642 13.1487 15.642 12.5506 15.9392C12.3392 16.0447 12.1062 16.0997 11.8699 16.1H11.4001C10.7374 16.1 10.2001 15.5627 10.2001 14.9C10.2001 14.2373 10.7374 13.7 11.4001 13.7H11.8699C12.1062 13.7003 12.3392 13.7554 12.5506 13.8608C13.1488 14.1578 13.8514 14.1578 14.4496 13.8608C14.661 13.7554 14.894 13.7003 15.1303 13.7H15.6001C16.2628 13.7 16.8001 14.2373 16.8001 14.9C16.8001 15.5627 16.2628 16.1 15.6001 16.1Z" fill="#272727"/>
<path d="M15.9 14.3H15.3V14.9H15.9V14.3Z" fill="#272727"/>
<path d="M12.9 14.3H12.3V14.9H12.9V14.3Z" fill="#272727"/>
<path d="M11.7001 14.6001H11.1001V15.2001H11.7001V14.6001Z" fill="#272727"/>
<path d="M14.7001 14.6001H14.1001V15.2001H14.7001V14.6001Z" fill="#272727"/>
</g>
<defs>
<clipPath id="clip0">
<rect width="18" height="18" fill="#272727" transform="translate(0 0.5)"/>
</clipPath>
</defs>
</svg>
