<svg width="18" height="18" viewBox="0 0 18 18" fill="none" xmlns="http://www.w3.org/2000/svg">
<g clip-path="url(#clip0)">
<path d="M11.7021 3.01154C10.1512 3.00964 8.65514 3.58503 7.50523 4.6256C6.17967 2.92737 3.78367 2.50845 1.96073 3.65646C0.137643 4.80433 -0.520161 7.14602 0.438442 9.07537C1.39704 11.0046 3.66072 11.8947 5.67658 11.1351C5.76162 11.4143 5.86672 11.6868 5.99084 11.9509C4.76482 12.758 4.22045 14.2785 4.65547 15.6804C5.0905 17.082 6.40011 18.0273 7.8675 17.9986C9.33505 17.9699 10.6066 16.9743 10.9866 15.5565C13.3063 15.8238 15.5833 14.7847 16.9016 12.8572C18.2197 10.9298 18.3622 8.43089 17.2717 6.36599C16.1812 4.30109 14.0372 3.00978 11.7021 3.01154ZM0.610431 7.20837C0.607943 5.6612 1.5967 4.28646 3.06424 3.79654C4.53179 3.30663 6.1482 3.81177 7.07562 5.05009C6.00124 6.20703 5.40506 7.728 5.40681 9.30679C5.40769 9.72381 5.44985 10.1395 5.5324 10.5482C4.42552 10.9918 3.17036 10.8565 2.18351 10.1868C1.19666 9.51728 0.607211 8.40103 0.610431 7.20837ZM7.805 17.4007C6.31492 17.4007 5.10704 16.1928 5.10704 14.7027C5.10704 13.2128 6.31492 12.0048 7.805 12.0048C9.29509 12.0048 10.503 13.2128 10.503 14.7027C10.5014 16.1921 9.29436 17.3991 7.805 17.4007ZM11.7021 15.0025C11.4973 15.001 11.2928 14.9886 11.0893 14.965C11.0962 14.8784 11.1025 14.7913 11.1025 14.7027C11.1025 13.5972 10.5482 12.5651 9.62663 11.9543C8.70491 11.3434 7.53846 11.2353 6.52013 11.666C6.37112 11.3426 6.25344 11.0056 6.16883 10.6597C6.0611 10.2168 6.00651 9.7626 6.00636 9.30679C6.00636 6.16121 8.55649 3.61109 11.7021 3.61109C14.8478 3.61109 17.3978 6.16121 17.3978 9.30679C17.3978 12.4525 14.8478 15.0025 11.7021 15.0025Z" fill="#272727"/>
<path d="M2.7088 13.5034C2.7088 13.3378 2.57457 13.2036 2.40903 13.2036C2.24348 13.2036 2.10925 13.3378 2.10925 13.5034C2.10925 14.0002 1.70658 14.4027 1.20993 14.4027C1.04438 14.4027 0.910156 14.5369 0.910156 14.7025C0.910156 14.868 1.04438 15.0023 1.20993 15.0023C1.70658 15.0023 2.10925 15.4049 2.10925 15.9016C2.10925 16.0671 2.24348 16.2014 2.40903 16.2014C2.57457 16.2014 2.7088 16.0671 2.7088 15.9016C2.7088 15.4049 3.11147 15.0023 3.60812 15.0023C3.77367 15.0023 3.9079 14.868 3.9079 14.7025C3.9079 14.5369 3.77367 14.4027 3.60812 14.4027C3.11147 14.4027 2.7088 14.0002 2.7088 13.5034ZM2.40903 15.0116C2.32179 14.894 2.21757 14.7899 2.10003 14.7025C2.21757 14.6153 2.32179 14.511 2.40903 14.3935C2.49641 14.511 2.60048 14.6153 2.71817 14.7025C2.60048 14.7899 2.49641 14.894 2.40903 15.0116Z" fill="#272727"/>
<path d="M14.6997 2.71115C14.6997 2.8767 14.8339 3.01092 14.9995 3.01092C15.165 3.01092 15.2992 2.8767 15.2992 2.71115C15.2992 2.2145 15.7019 1.81183 16.1986 1.81183C16.3641 1.81183 16.4983 1.6776 16.4983 1.51205C16.4983 1.3465 16.3641 1.21228 16.1986 1.21228C15.7019 1.21228 15.2992 0.809751 15.2992 0.312957C15.2992 0.147408 15.165 0.0131836 14.9995 0.0131836C14.8339 0.0131836 14.6997 0.147408 14.6997 0.312957C14.6997 0.809751 14.297 1.21228 13.8004 1.21228C13.6348 1.21228 13.5006 1.3465 13.5006 1.51205C13.5006 1.6776 13.6348 1.81183 13.8004 1.81183C14.297 1.81183 14.6997 2.2145 14.6997 2.71115ZM14.9995 1.20306C15.0869 1.3206 15.1909 1.42481 15.3086 1.51205C15.1909 1.59944 15.0869 1.70351 14.9995 1.82119C14.9122 1.70351 14.808 1.59944 14.6905 1.51205C14.808 1.42481 14.9122 1.3206 14.9995 1.20306Z" fill="#272727"/>
<path d="M15.5991 9.30651C15.1024 9.30651 14.6998 8.90399 14.6998 8.4072C14.6998 8.24165 14.5655 8.10742 14.4 8.10742C14.2344 8.10742 14.1002 8.24165 14.1002 8.4072C14.1002 8.90399 13.6975 9.30651 13.2009 9.30651C13.0353 9.30651 12.9011 9.44074 12.9011 9.60629C12.9011 9.77184 13.0353 9.90606 13.2009 9.90606C13.6975 9.90606 14.1002 10.3087 14.1002 10.8054C14.1002 10.9709 14.2344 11.1052 14.4 11.1052C14.5655 11.1052 14.6998 10.9709 14.6998 10.8054C14.6998 10.3087 15.1024 9.90606 15.5991 9.90606C15.7646 9.90606 15.8989 9.77184 15.8989 9.60629C15.8989 9.44074 15.7646 9.30651 15.5991 9.30651ZM14.4 9.91543C14.3128 9.79774 14.2085 9.69367 14.091 9.60629C14.2085 9.51905 14.3128 9.41483 14.4 9.29729C14.4874 9.41483 14.5914 9.51905 14.7091 9.60629C14.5914 9.69367 14.4874 9.79774 14.4 9.91543Z" fill="#272727"/>
<path d="M12.3016 6.90805C12.3016 6.7425 12.1674 6.60827 12.0018 6.60827C11.5052 6.60827 11.1025 6.20574 11.1025 5.70895C11.1025 5.5434 10.9683 5.40918 10.8027 5.40918C10.6372 5.40918 10.5029 5.5434 10.5029 5.70895C10.5029 6.20574 10.1003 6.60827 9.60361 6.60827C9.43806 6.60827 9.30383 6.7425 9.30383 6.90805C9.30383 7.07359 9.43806 7.20782 9.60361 7.20782C10.1003 7.20782 10.5029 7.61049 10.5029 8.10714C10.5029 8.27269 10.6372 8.40691 10.8027 8.40691C10.9683 8.40691 11.1025 8.27269 11.1025 8.10714C11.1025 7.61049 11.5052 7.20782 12.0018 7.20782C12.1674 7.20782 12.3016 7.07359 12.3016 6.90805ZM10.8027 7.21719C10.7155 7.0995 10.6113 6.99543 10.4937 6.90805C10.6113 6.82081 10.7155 6.71659 10.8027 6.59905C10.8901 6.71659 10.9942 6.82081 11.1119 6.90805C10.9942 6.99543 10.8901 7.0995 10.8027 7.21719Z" fill="#272727"/>
<path d="M3.60815 12.3042H4.2077V12.9038H3.60815V12.3042Z" fill="#272727"/>
<path d="M0.610352 16.501H1.2099V17.1005H0.610352V16.501Z" fill="#272727"/>
<path d="M17.6975 15.602C17.6975 15.1053 17.2948 14.7026 16.7981 14.7026C16.3015 14.7026 15.8988 15.1053 15.8988 15.602C15.8988 16.0988 16.3015 16.5013 16.7981 16.5013C17.2948 16.5013 17.6975 16.0988 17.6975 15.602ZM16.4984 15.602C16.4984 15.4364 16.6326 15.3022 16.7981 15.3022C16.9637 15.3022 17.0979 15.4364 17.0979 15.602C17.0979 15.7675 16.9637 15.9017 16.7981 15.9017C16.6326 15.9017 16.4984 15.7675 16.4984 15.602Z" fill="#272727"/>
<path d="M9.00403 2.11218C9.00403 1.44999 8.46713 0.913086 7.80493 0.913086C7.14273 0.913086 6.60583 1.44999 6.60583 2.11218C6.60583 2.77452 7.14273 3.31128 7.80493 3.31128C8.46713 3.31128 9.00403 2.77452 9.00403 2.11218ZM7.20538 2.11218C7.20538 1.78108 7.47383 1.51263 7.80493 1.51263C8.13603 1.51263 8.40448 1.78108 8.40448 2.11218C8.40448 2.44343 8.13603 2.71173 7.80493 2.71173C7.47383 2.71173 7.20538 2.44343 7.20538 2.11218Z" fill="#272727"/>
<path d="M10.8027 1.51221H11.4023V2.11175H10.8027V1.51221Z" fill="#272727"/>
<path d="M12.0018 12.604H12.6014V13.2036H12.0018V12.604Z" fill="#272727"/>
<path d="M13.8004 16.501H14.4V17.1005H13.8004V16.501Z" fill="#272727"/>
<path d="M3.60815 7.80762H4.2077V8.40717H3.60815V7.80762Z" fill="#272727"/>
<path d="M1.20994 7.83482L1.80949 7.78081C1.80803 7.76647 1.68961 6.33976 2.47944 5.47249C2.93262 5.01229 3.5629 4.77063 4.20768 4.81001V4.21046C3.3934 4.16742 2.60064 4.48081 2.03578 5.06909C1.06811 6.12913 1.20482 7.76588 1.20994 7.83482Z" fill="#272727"/>
<path d="M12.0018 4.21045V4.81C12.1517 4.81 15.6457 4.87396 16.202 9.0465L16.7962 8.96731C16.1687 4.26505 12.0435 4.21045 12.0018 4.21045Z" fill="#272727"/>
</g>
<defs>
<clipPath id="clip0">
<rect width="18" height="18" fill="#272727"/>
</clipPath>
</defs>
</svg>
