<svg width="18" height="19" viewBox="0 0 18 19" fill="none" xmlns="http://www.w3.org/2000/svg">
<path d="M6.1875 17.9375H11.25C12.1807 17.9375 12.9375 17.1807 12.9375 16.25V11.1875C12.9375 9.90809 11.7332 9.17628 10.7651 8.58819C10.1739 8.22875 9.5625 7.8575 9.5625 7.53125V5.84375C9.5625 5.6885 9.43678 5.5625 9.28125 5.5625V4.71875H10.8813C11.1265 4.88525 11.4055 5.01012 11.7112 5.07819L12.5952 5.2745L12.7173 4.7255L11.8333 4.52919C11.0863 4.36325 10.5396 3.76644 10.4273 3.03125H11.25H12.0938H13.2188C13.3743 3.03125 13.5 2.90525 13.5 2.75V1.34375C13.5 1.1885 13.3743 1.0625 13.2188 1.0625H12.0938H7.03125C5.51869 1.0625 5.34375 2.18609 5.34375 3.03125V4.15625C5.34375 4.3115 5.46947 4.4375 5.625 4.4375H6.75V5.5625C6.59447 5.5625 6.46875 5.6885 6.46875 5.84375C6.46875 6.08675 6.50925 6.30866 6.54806 6.52353C6.59503 6.78256 6.63947 7.02725 6.60713 7.28459C6.54159 7.80716 6.34838 8.31313 6.156 8.78675C5.25009 11.0204 4.5 13.0581 4.5 15.379V16.25C4.5 17.1807 5.25684 17.9375 6.1875 17.9375ZM12.9375 2.46875H12.375V1.625H12.9375V2.46875ZM9.88003 3.16794C9.94359 3.53216 10.0901 3.86769 10.3002 4.15625H9.28125C9.28125 3.72706 9.52566 3.35778 9.88003 3.16794ZM7.03125 3.875H5.90625V3.03125C5.90625 1.97994 6.19031 1.625 7.03125 1.625H11.8125V2.46875H11.25H10.4062H10.125C10.0598 2.46875 10.0021 2.49462 9.95456 2.53203C9.243 2.73031 8.71875 3.38225 8.71875 4.15625V5.5625H7.3125V4.15625C7.3125 4.001 7.18678 3.875 7.03125 3.875ZM5.0625 15.379C5.0625 13.1596 5.79403 11.176 6.67744 8.99797C6.87459 8.51225 7.09116 7.94441 7.16512 7.35434C7.20816 7.01122 7.15388 6.71225 7.10128 6.42284C7.083 6.32131 7.06472 6.22288 7.05178 6.125H9V7.53125C9 8.17391 9.68287 8.58847 10.4729 9.06884C11.3645 9.61053 12.375 10.2245 12.375 11.1875V16.25C12.375 16.8704 11.8704 17.375 11.25 17.375H6.1875C5.56706 17.375 5.0625 16.8704 5.0625 16.25V15.379Z" fill="#272727"/>
<path d="M9 16.25C10.5508 16.25 11.8125 14.862 11.8125 13.1562C11.8125 11.4505 10.5508 10.0625 9 10.0625C7.44919 10.0625 6.1875 11.4505 6.1875 13.1562C6.1875 14.862 7.44919 16.25 9 16.25ZM9 10.625C10.2406 10.625 11.25 11.7607 11.25 13.1562C11.25 14.5518 10.2406 15.6875 9 15.6875C7.75941 15.6875 6.75 14.5518 6.75 13.1562C6.75 11.7607 7.75941 10.625 9 10.625Z" fill="#272727"/>
</svg>
