<svg width="18" height="19" viewBox="0 0 18 19" fill="none" xmlns="http://www.w3.org/2000/svg">
<g clip-path="url(#clip0)">
<path d="M15.0469 0.78125H2.95312C2.69214 0.781538 2.44193 0.885342 2.25739 1.06989C2.07284 1.25443 1.96904 1.50464 1.96875 1.76562V17.2344C1.96904 17.4954 2.07284 17.7456 2.25739 17.9301C2.44193 18.1147 2.69214 18.2185 2.95312 18.2188H15.0469C15.3079 18.2185 15.5581 18.1147 15.7426 17.9301C15.9272 17.7456 16.031 17.4954 16.0312 17.2344V1.76562C16.031 1.50464 15.9272 1.25443 15.7426 1.06989C15.5581 0.885342 15.3079 0.781538 15.0469 0.78125ZM15.4688 17.2344C15.4687 17.3462 15.4242 17.4535 15.3451 17.5326C15.266 17.6117 15.1587 17.6562 15.0469 17.6562H2.95312C2.84127 17.6562 2.73401 17.6117 2.65492 17.5326C2.57582 17.4535 2.53134 17.3462 2.53125 17.2344V4.15625H15.4688V17.2344ZM15.4688 3.59375H2.53125V1.76562C2.53134 1.65377 2.57582 1.54651 2.65492 1.46742C2.73401 1.38832 2.84127 1.34384 2.95312 1.34375H15.0469C15.1587 1.34384 15.266 1.38832 15.3451 1.46742C15.4242 1.54651 15.4687 1.65377 15.4688 1.76562V3.59375Z" fill="#272727"/>
<path d="M8.99999 6.6875C8.22123 6.6875 7.45996 6.91843 6.81244 7.35109C6.16492 7.78375 5.66025 8.3987 5.36223 9.11818C5.06421 9.83767 4.98623 10.6294 5.13816 11.3932C5.29009 12.157 5.6651 12.8586 6.21577 13.4092C6.76643 13.9599 7.46803 14.3349 8.23183 14.4868C8.99563 14.6388 9.78732 14.5608 10.5068 14.2628C11.2263 13.9648 11.8412 13.4601 12.2739 12.8126C12.7066 12.165 12.9375 11.4038 12.9375 10.625C12.9363 9.58107 12.5211 8.58024 11.7829 7.84207C11.0447 7.1039 10.0439 6.68868 8.99999 6.6875ZM8.99999 14C8.33248 14 7.67996 13.8021 7.12495 13.4312C6.56993 13.0604 6.13735 12.5333 5.88191 11.9166C5.62646 11.2999 5.55963 10.6213 5.68985 9.96657C5.82008 9.31188 6.14151 8.71052 6.61351 8.23851C7.08551 7.76651 7.68688 7.44508 8.34157 7.31485C8.99625 7.18462 9.67485 7.25146 10.2915 7.50691C10.9082 7.76235 11.4353 8.19493 11.8062 8.74995C12.177 9.30497 12.375 9.95749 12.375 10.625C12.374 11.5198 12.0181 12.3777 11.3854 13.0104C10.7526 13.6431 9.89479 13.999 8.99999 14Z" fill="#272727"/>
<path d="M3.09375 3.3125H4.21875C4.29334 3.3125 4.36488 3.28287 4.41762 3.23012C4.47037 3.17738 4.5 3.10584 4.5 3.03125V1.90625C4.5 1.83166 4.47037 1.76012 4.41762 1.70738C4.36488 1.65463 4.29334 1.625 4.21875 1.625H3.09375C3.01916 1.625 2.94762 1.65463 2.89488 1.70738C2.84213 1.76012 2.8125 1.83166 2.8125 1.90625V3.03125C2.8125 3.10584 2.84213 3.17738 2.89488 3.23012C2.94762 3.28287 3.01916 3.3125 3.09375 3.3125ZM3.375 2.1875H3.9375V2.75H3.375V2.1875Z" fill="#272727"/>
<path d="M5.0625 3.3125H6.1875C6.26209 3.3125 6.33363 3.28287 6.38637 3.23012C6.43912 3.17738 6.46875 3.10584 6.46875 3.03125V1.90625C6.46875 1.83166 6.43912 1.76012 6.38637 1.70738C6.33363 1.65463 6.26209 1.625 6.1875 1.625H5.0625C4.98791 1.625 4.91637 1.65463 4.86363 1.70738C4.81088 1.76012 4.78125 1.83166 4.78125 1.90625V3.03125C4.78125 3.10584 4.81088 3.17738 4.86363 3.23012C4.91637 3.28287 4.98791 3.3125 5.0625 3.3125ZM5.34375 2.1875H5.90625V2.75H5.34375V2.1875Z" fill="#272727"/>
<path d="M7.03125 3.3125H8.15625C8.23084 3.3125 8.30238 3.28287 8.35512 3.23012C8.40787 3.17738 8.4375 3.10584 8.4375 3.03125V1.90625C8.4375 1.83166 8.40787 1.76012 8.35512 1.70738C8.30238 1.65463 8.23084 1.625 8.15625 1.625H7.03125C6.95666 1.625 6.88512 1.65463 6.83238 1.70738C6.77963 1.76012 6.75 1.83166 6.75 1.90625V3.03125C6.75 3.10584 6.77963 3.17738 6.83238 3.23012C6.88512 3.28287 6.95666 3.3125 7.03125 3.3125ZM7.3125 2.1875H7.875V2.75H7.3125V2.1875Z" fill="#272727"/>
<path d="M14.2031 8.65625H13.7812C13.7441 8.65621 13.7072 8.66362 13.673 8.67805C13.2877 7.75608 12.6386 6.96849 11.8072 6.41419C10.9759 5.85989 9.99923 5.56359 9 5.5625C6.20859 5.5625 3.9375 7.83359 3.9375 10.625C3.9375 13.4164 6.20859 15.6875 9 15.6875C9.99923 15.6864 10.9759 15.3901 11.8072 14.8358C12.6386 14.2815 13.2877 13.4939 13.673 12.572C13.7072 12.5864 13.7441 12.5938 13.7812 12.5938H14.2031C14.4641 12.5935 14.7143 12.4897 14.8989 12.3051C15.0834 12.1206 15.1872 11.8704 15.1875 11.6094V9.64062C15.1872 9.37964 15.0834 9.12943 14.8989 8.94489C14.7143 8.76034 14.4641 8.65654 14.2031 8.65625ZM9 15.125C8.10998 15.125 7.23996 14.8611 6.49993 14.3666C5.75991 13.8721 5.18314 13.1693 4.84254 12.3471C4.50195 11.5248 4.41283 10.62 4.58647 9.74709C4.7601 8.87418 5.18868 8.07236 5.81802 7.44302C6.44736 6.81368 7.24918 6.3851 8.12209 6.21147C8.99501 6.03783 9.89981 6.12695 10.7221 6.46754C11.5443 6.80814 12.2471 7.38491 12.7416 8.12493C13.2361 8.86496 13.5 9.73498 13.5 10.625C13.4987 11.8181 13.0241 12.9619 12.1805 13.8055C11.3369 14.6491 10.1931 15.1237 9 15.125ZM14.625 11.6094C14.6249 11.7212 14.5804 11.8285 14.5013 11.9076C14.4222 11.9867 14.315 12.0312 14.2031 12.0312H14.0625V9.21875H14.2031C14.315 9.21884 14.4222 9.26332 14.5013 9.34242C14.5804 9.42151 14.6249 9.52877 14.625 9.64062V11.6094Z" fill="#272727"/>
</g>
<defs>
<clipPath id="clip0">
<rect width="18" height="18" fill="#272727" transform="translate(0 0.5)"/>
</clipPath>
</defs>
</svg>
