<svg width="15" height="15" viewBox="0 0 15 15" fill="none" xmlns="http://www.w3.org/2000/svg">
<g clip-path="url(#clip0)">
<path d="M6.02439 0.666016C7.62216 0.666016 9.15449 1.27071 10.2843 2.34708C11.4141 3.42344 12.0488 4.88331 12.0488 6.40552C12.0488 7.82715 11.502 9.13399 10.6029 10.1406L10.8532 10.379H11.5854L15 13.423L13.6098 14.7475L10.1951 11.7035V11.0059L9.94488 10.7675C8.88829 11.624 7.51659 12.145 6.02439 12.145C4.42662 12.145 2.8943 11.5403 1.7645 10.464C0.634711 9.38759 0 7.92773 0 6.40552C0 4.88331 0.634711 3.42344 1.7645 2.34708C2.8943 1.27071 4.42662 0.666016 6.02439 0.666016ZM6.02439 2.43202C3.70732 2.43202 1.85366 4.19802 1.85366 6.40552C1.85366 8.61302 3.70732 10.379 6.02439 10.379C8.34146 10.379 10.1951 8.61302 10.1951 6.40552C10.1951 4.19802 8.34146 2.43202 6.02439 2.43202Z" fill="white"/>
</g>
<defs>
<clipPath id="clip0">
<rect width="15" height="14.0815" fill="white" transform="translate(0 0.666016)"/>
</clipPath>
</defs>
</svg>
