<svg width="225" height="34" viewBox="0 0 225 34" fill="none" xmlns="http://www.w3.org/2000/svg">
<path d="M32.3026 7.37642C32.9271 6.59585 33.2914 5.62013 33.2914 4.54033C33.2914 2.02949 31.2619 0 28.751 0C26.2402 0 24.2107 2.02949 24.2107 4.54033C24.2107 6.88205 25.98 8.80746 28.2437 9.05464V13.1526C26.5264 13.3998 25.2124 14.8699 25.2124 16.6522C25.2124 18.4345 26.5264 19.9046 28.2437 20.1518V24.2498C25.98 24.497 24.2107 26.4224 24.2107 28.7641C24.2107 31.2749 26.2402 33.3044 28.751 33.3044C31.2619 33.3044 33.2914 31.2749 33.2914 28.7641C33.2914 26.4224 31.5221 24.497 29.2584 24.2498V20.1518C30.9757 19.9046 32.2896 18.4345 32.2896 16.6522C32.2896 14.8699 30.9757 13.3998 29.2584 13.1526V9.05464C30.13 8.96357 30.9366 8.61233 31.5871 8.09195L32.6149 9.11969C32.4067 9.57502 32.2896 10.0694 32.2896 10.6028C32.2896 12.5542 33.8768 14.1284 35.8152 14.1284C36.3486 14.1284 36.843 14.0113 37.2983 13.8031L38.0268 14.5317C37.5845 15.1171 37.3243 15.8586 37.3243 16.6522C37.3243 18.6037 38.9115 20.1778 40.8499 20.1778C41.6435 20.1778 42.372 19.9176 42.9705 19.4753L44.0763 20.5811C43.6339 21.1665 43.3738 21.9081 43.3738 22.7017C43.3738 24.6531 44.9609 26.2272 46.8993 26.2272C47.6929 26.2272 48.4215 25.9671 49.0199 25.5247L49.4102 25.915C48.7857 26.6956 48.4215 27.6713 48.4215 28.7511C48.4215 31.2619 50.4509 33.2914 52.9618 33.2914C55.4726 33.2914 57.5021 31.2619 57.5021 28.7511C57.5021 26.4094 55.7328 24.484 53.4692 24.2368V20.1518C55.1864 19.9046 56.5004 18.4345 56.5004 16.6522C56.5004 14.8699 55.1864 13.3998 53.4692 13.1526V9.05464C55.7328 8.80746 57.5021 6.88205 57.5021 4.54033C57.5021 2.02949 55.4726 0 52.9618 0C50.4509 0 48.4215 2.02949 48.4215 4.54033C48.4215 6.88205 50.1908 8.80746 52.4544 9.05464V13.1526C50.7372 13.3998 49.4232 14.8699 49.4232 16.6522C49.4232 18.4345 50.7372 19.9046 52.4544 20.1518V24.2498C51.5828 24.3409 50.7762 24.6921 50.1257 25.2125L49.7354 24.8222C50.1777 24.2368 50.4379 23.4953 50.4379 22.7017C50.4379 20.7502 48.8508 19.1761 46.9123 19.1761C46.1188 19.1761 45.3902 19.4362 44.7918 19.8786L43.686 18.7728C44.1283 18.1873 44.3885 17.4458 44.3885 16.6522C44.3885 14.7008 42.8013 13.1266 40.8629 13.1266C40.0693 13.1266 39.3408 13.3868 38.7424 13.8291L38.1569 13.2437C38.8855 12.5932 39.3408 11.6566 39.3408 10.6028C39.3408 8.65136 37.7536 7.0772 35.8152 7.0772C34.7614 7.0772 33.8248 7.53254 33.1743 8.26108L32.3026 7.37642Z" fill="#3C7DD2"/>
<path d="M103.296 17.9792V3.38243H105.637V22.2073H103.374L92.2897 7.58451H92.1596V22.2073H89.8179V3.38243H92.0815L103.166 17.9792H103.296ZM117.866 22.5325C116.5 22.5325 115.278 22.2723 114.185 21.7649C113.118 21.2575 112.246 20.581 111.57 19.7224C110.23 17.9791 109.553 15.8846 109.553 13.4518C109.553 10.4076 110.438 7.90976 112.194 5.95833C113.951 4.01991 116.292 3.04419 119.193 3.04419C120.559 3.04419 121.769 3.30438 122.849 3.81176C123.942 4.31913 124.814 4.99562 125.464 5.85425C126.83 7.59753 127.507 9.69207 127.507 12.1249C127.507 15.1691 126.622 17.6669 124.866 19.6183C123.109 21.5568 120.781 22.5325 117.866 22.5325ZM119.102 5.0997C116.852 5.0997 115.121 5.84125 113.899 7.31133C112.676 8.7814 112.077 10.8369 112.077 13.4909C112.077 15.4293 112.598 17.0945 113.625 18.4735C114.679 19.8525 116.136 20.542 118.01 20.542C120.26 20.542 121.99 19.8005 123.187 18.3304C124.41 16.8603 125.009 14.8048 125.009 12.1509C125.009 10.2124 124.488 8.54722 123.461 7.16821C122.42 5.7892 120.963 5.0997 119.102 5.0997ZM132.099 3.38243L137.381 19.6183H137.511L142.845 3.38243H145.16L139.007 22.2073H135.742L129.51 3.38243H132.099ZM147.853 22.1942V3.36943H158.912L158.391 5.43795H150.195V11.6435H157.936V13.6339H150.195V20.1127H159.432V22.1812H147.853V22.1942ZM162.932 22.1942V3.36943H165.273V20.1257H173.248V22.1942H162.932Z" fill="#3C7DD2"/>
<path d="M88.894 31.2749V30.8326C89.2323 30.8846 89.4925 30.7675 89.6616 30.5204C89.8307 30.2602 89.9218 29.7788 89.9218 29.0763V26.3313H93.1221V31.2749H92.6278V26.7997H90.4162V29.0893C90.4162 29.5316 90.3771 29.9089 90.3121 30.2081C90.247 30.5074 90.1299 30.7415 89.9999 30.8977C89.8698 31.0538 89.7006 31.1578 89.5315 31.2099C89.3494 31.2749 89.1282 31.3009 88.894 31.2749ZM97.5324 27.7493H98.0007V31.2749H97.5324V30.5854C97.2071 31.1058 96.7258 31.366 96.1013 31.366C95.5939 31.366 95.1646 31.1839 94.8134 30.8326C94.4621 30.4683 94.28 30.039 94.28 29.5186C94.28 28.9983 94.4621 28.5689 94.8134 28.2047C95.1777 27.8404 95.607 27.6713 96.1013 27.6713C96.7258 27.6713 97.2071 27.9315 97.5324 28.4519V27.7493ZM95.1516 30.5074C95.4248 30.7806 95.7501 30.9106 96.1404 30.9106C96.5306 30.9106 96.8559 30.7806 97.1291 30.5074C97.4023 30.2342 97.5324 29.9089 97.5324 29.5056C97.5324 29.1023 97.4023 28.7901 97.1291 28.5169C96.8559 28.2437 96.5306 28.1136 96.1404 28.1136C95.7501 28.1136 95.4248 28.2437 95.1516 28.5169C94.8784 28.7901 94.7483 29.1153 94.7483 29.5056C94.7483 29.8959 94.8784 30.2342 95.1516 30.5074ZM100.85 31.366C100.342 31.366 99.9131 31.1969 99.5749 30.8586C99.2366 30.5204 99.0675 30.078 99.0675 29.5446C99.0675 28.9462 99.1586 28.4779 99.3407 28.1657C99.5228 27.8404 99.8871 27.5412 100.434 27.281C100.538 27.229 100.668 27.1639 100.837 27.0988C101.006 27.0338 101.136 26.9688 101.227 26.9297C101.318 26.8907 101.409 26.8387 101.513 26.7736C101.617 26.7086 101.695 26.6305 101.747 26.5395C101.8 26.4484 101.839 26.3573 101.852 26.2402L102.216 26.4484C102.203 26.5655 102.164 26.6695 102.099 26.7606C102.047 26.8647 101.982 26.9428 101.917 26.9948C101.865 27.0598 101.773 27.1249 101.643 27.2029C101.526 27.268 101.422 27.32 101.357 27.359C101.292 27.3851 101.175 27.4371 101.006 27.5022C100.837 27.5672 100.733 27.6193 100.681 27.6453C100.355 27.7884 100.108 27.9315 99.9522 28.0876C99.796 28.2437 99.692 28.4389 99.6139 28.686C99.77 28.4779 99.9782 28.3218 100.225 28.2177C100.473 28.1136 100.72 28.0616 100.954 28.0616C101.422 28.0616 101.813 28.2177 102.125 28.5299C102.437 28.8421 102.593 29.2324 102.593 29.7138C102.593 30.1951 102.424 30.5854 102.099 30.8977C101.76 31.2099 101.344 31.366 100.85 31.366ZM100.85 30.8977C101.214 30.8977 101.513 30.7806 101.747 30.5594C101.982 30.3382 102.112 30.052 102.112 29.7008C102.112 29.3495 101.995 29.0633 101.773 28.8421C101.552 28.621 101.253 28.5039 100.889 28.5039C100.551 28.5039 100.251 28.608 99.9782 28.8161C99.705 29.0243 99.5749 29.2975 99.5749 29.6487C99.5749 30.013 99.692 30.2992 99.9391 30.5334C100.186 30.7806 100.486 30.8977 100.85 30.8977ZM106.548 30.8326C106.184 31.1839 105.754 31.366 105.234 31.366C104.714 31.366 104.271 31.1839 103.907 30.8326C103.543 30.4683 103.374 30.039 103.374 29.5186C103.374 28.9983 103.556 28.5559 103.907 28.2047C104.271 27.8404 104.714 27.6713 105.234 27.6713C105.754 27.6713 106.184 27.8534 106.548 28.2047C106.912 28.5559 107.094 28.9983 107.094 29.5186C107.094 30.039 106.912 30.4814 106.548 30.8326ZM104.245 30.5074C104.519 30.7806 104.844 30.9106 105.234 30.9106C105.624 30.9106 105.95 30.7806 106.223 30.5074C106.496 30.2342 106.626 29.9089 106.626 29.5056C106.626 29.1023 106.496 28.7901 106.223 28.5169C105.95 28.2437 105.624 28.1136 105.234 28.1136C104.844 28.1136 104.519 28.2437 104.245 28.5169C103.972 28.7901 103.842 29.1153 103.842 29.5056C103.842 29.8959 103.985 30.2342 104.245 30.5074ZM110.074 27.6583C110.581 27.6583 111.01 27.8404 111.362 28.1917C111.726 28.5559 111.895 28.9852 111.895 29.5056C111.895 30.026 111.713 30.4553 111.362 30.8196C111.01 31.1839 110.581 31.353 110.074 31.353C109.449 31.353 108.968 31.0928 108.643 30.5724V32.68H108.174V27.7363H108.643V28.4258C108.968 27.9185 109.449 27.6583 110.074 27.6583ZM109.046 30.5074C109.319 30.7806 109.644 30.9106 110.035 30.9106C110.425 30.9106 110.75 30.7806 111.023 30.5074C111.296 30.2342 111.427 29.9089 111.427 29.5056C111.427 29.1023 111.296 28.7901 111.023 28.5169C110.75 28.2437 110.425 28.1136 110.035 28.1136C109.644 28.1136 109.319 28.2437 109.046 28.5169C108.773 28.7901 108.643 29.1153 108.643 29.5056C108.643 29.8959 108.773 30.2342 109.046 30.5074ZM116.006 27.7493H116.474V31.2749H116.006V30.5854C115.681 31.1058 115.212 31.366 114.575 31.366C114.068 31.366 113.638 31.1839 113.287 30.8326C112.936 30.4683 112.754 30.039 112.754 29.5186C112.754 28.9983 112.936 28.5689 113.287 28.2047C113.651 27.8404 114.081 27.6713 114.575 27.6713C115.199 27.6713 115.681 27.9315 116.006 28.4519V27.7493ZM113.625 30.5074C113.898 30.7806 114.224 30.9106 114.614 30.9106C115.004 30.9106 115.329 30.7806 115.603 30.5074C115.876 30.2342 116.006 29.9089 116.006 29.5056C116.006 29.1023 115.876 28.7901 115.603 28.5169C115.329 28.2437 115.004 28.1136 114.614 28.1136C114.224 28.1136 113.898 28.2437 113.625 28.5169C113.352 28.7901 113.222 29.1153 113.222 29.5056C113.222 29.8959 113.352 30.2342 113.625 30.5074ZM120.299 27.7493V28.2047H119.05V31.2879H118.582V28.2047H117.333V27.7493H120.299ZM123.994 30.8326C123.63 31.1839 123.2 31.366 122.68 31.366C122.159 31.366 121.717 31.1839 121.353 30.8326C120.989 30.4683 120.819 30.039 120.819 29.5186C120.819 28.9983 121.002 28.5559 121.353 28.2047C121.717 27.8404 122.159 27.6713 122.68 27.6713C123.2 27.6713 123.63 27.8534 123.994 28.2047C124.358 28.5559 124.54 28.9983 124.54 29.5186C124.54 30.039 124.358 30.4814 123.994 30.8326ZM121.691 30.5074C121.964 30.7806 122.29 30.9106 122.68 30.9106C123.07 30.9106 123.395 30.7806 123.669 30.5074C123.942 30.2342 124.072 29.9089 124.072 29.5056C124.072 29.1023 123.942 28.7901 123.669 28.5169C123.395 28.2437 123.07 28.1136 122.68 28.1136C122.29 28.1136 121.964 28.2437 121.691 28.5169C121.418 28.7901 121.288 29.1153 121.288 29.5056C121.288 29.8959 121.418 30.2342 121.691 30.5074ZM127.506 27.6583C128.014 27.6583 128.443 27.8404 128.794 28.1917C129.159 28.5559 129.328 28.9852 129.328 29.5056C129.328 30.026 129.146 30.4553 128.794 30.8196C128.443 31.1839 128.014 31.353 127.506 31.353C126.882 31.353 126.401 31.0928 126.075 30.5724V32.68H125.607V27.7363H126.075V28.4258C126.414 27.9185 126.882 27.6583 127.506 27.6583ZM126.492 30.5074C126.765 30.7806 127.09 30.9106 127.48 30.9106C127.871 30.9106 128.196 30.7806 128.469 30.5074C128.742 30.2342 128.872 29.9089 128.872 29.5056C128.872 29.1023 128.742 28.7901 128.469 28.5169C128.196 28.2437 127.871 28.1136 127.48 28.1136C127.09 28.1136 126.765 28.2437 126.492 28.5169C126.218 28.7901 126.088 29.1153 126.088 29.5056C126.088 29.8959 126.218 30.2342 126.492 30.5074ZM132.983 27.7493H133.374V31.2749H132.905V28.5559L130.798 31.2749H130.407V27.7493H130.876V30.4683L132.983 27.7493ZM137.211 27.7493V31.2749H136.743V29.9219H136.132L135.039 31.2749H134.44L135.559 29.9089C135.273 29.8699 135.039 29.7528 134.857 29.5577C134.675 29.3625 134.584 29.1284 134.584 28.8421C134.584 28.5169 134.701 28.2567 134.922 28.0616C135.156 27.8534 135.429 27.7493 135.767 27.7493H137.211ZM135.78 29.4796H136.743V28.1917H135.78C135.585 28.1917 135.416 28.2567 135.273 28.3738C135.143 28.4909 135.065 28.647 135.065 28.8421C135.065 29.0373 135.13 29.1934 135.273 29.3105C135.403 29.4276 135.572 29.4796 135.78 29.4796ZM143.534 27.7493V31.2749H143.066V28.1917H141.036V31.2749H140.568V27.7493H143.534ZM146.708 27.6583C147.216 27.6583 147.645 27.8404 147.996 28.1917C148.361 28.5559 148.53 28.9852 148.53 29.5056C148.53 30.026 148.348 30.4553 147.996 30.8196C147.645 31.1839 147.216 31.353 146.708 31.353C146.084 31.353 145.603 31.0928 145.277 30.5724V32.68H144.809V27.7363H145.277V28.4258C145.616 27.9185 146.084 27.6583 146.708 27.6583ZM145.694 30.5074C145.967 30.7806 146.292 30.9106 146.682 30.9106C147.073 30.9106 147.398 30.7806 147.671 30.5074C147.944 30.2342 148.074 29.9089 148.074 29.5056C148.074 29.1023 147.944 28.7901 147.671 28.5169C147.398 28.2437 147.073 28.1136 146.682 28.1136C146.292 28.1136 145.967 28.2437 145.694 28.5169C145.421 28.7901 145.29 29.1153 145.29 29.5056C145.29 29.8959 145.421 30.2342 145.694 30.5074ZM152.576 30.8326C152.225 31.1839 151.782 31.366 151.262 31.366C150.741 31.366 150.299 31.1839 149.935 30.8326C149.584 30.4683 149.401 30.039 149.401 29.5186C149.401 28.9983 149.584 28.5559 149.935 28.2047C150.299 27.8404 150.741 27.6713 151.262 27.6713C151.782 27.6713 152.225 27.8534 152.576 28.2047C152.94 28.5559 153.122 28.9983 153.122 29.5186C153.109 30.039 152.94 30.4814 152.576 30.8326ZM150.273 30.5074C150.546 30.7806 150.872 30.9106 151.262 30.9106C151.652 30.9106 151.977 30.7806 152.251 30.5074C152.524 30.2342 152.654 29.9089 152.654 29.5056C152.654 29.1023 152.524 28.7901 152.251 28.5169C151.977 28.2437 151.652 28.1136 151.262 28.1136C150.872 28.1136 150.546 28.2437 150.273 28.5169C150 28.7901 149.87 29.1153 149.87 29.5056C149.87 29.8959 150 30.2342 150.273 30.5074ZM157.662 27.7493V31.2749H157.194V28.4519L155.958 30.4553H155.906L154.67 28.4519V31.2749H154.202V27.7493H154.735L155.932 29.6878L157.129 27.7493H157.662ZM160.381 29.0893C160.707 29.0893 160.993 29.1934 161.214 29.4016C161.448 29.6097 161.565 29.8699 161.565 30.1821C161.565 30.5074 161.448 30.7675 161.214 30.9757C160.993 31.1838 160.707 31.2749 160.381 31.2749H158.95V27.7493H159.419V29.0893H160.381ZM162.06 27.7493H162.528V31.2749H162.06V27.7493ZM160.381 30.8326C160.577 30.8326 160.746 30.7675 160.889 30.6505C161.032 30.5334 161.097 30.3773 161.097 30.1821C161.097 29.987 161.032 29.8309 160.889 29.7138C160.746 29.5967 160.59 29.5317 160.381 29.5317H159.419V30.8196H160.381V30.8326ZM168.083 27.7493H168.551V31.2749H163.816V27.7493H164.284V30.8326H165.95V27.7493H166.418V30.8326H168.083V27.7493ZM172.728 27.7493V31.2749H172.259V28.1917H170.659V29.7658C170.659 30.3512 170.542 30.7545 170.321 30.9757C170.1 31.1969 169.787 31.2879 169.397 31.2619V30.8196C169.67 30.8456 169.865 30.7806 169.996 30.6244C170.126 30.4683 170.191 30.1821 170.191 29.7528V27.7233H172.728V27.7493ZM175.655 27.6583C176.175 27.6583 176.604 27.8404 176.917 28.2177C177.242 28.5819 177.398 29.0243 177.398 29.5186C177.398 29.5707 177.398 29.6487 177.385 29.7398H174.289C174.341 30.1041 174.484 30.3773 174.744 30.5984C175.004 30.8066 175.316 30.9106 175.694 30.9106C175.967 30.9106 176.188 30.8586 176.383 30.7545C176.578 30.6375 176.734 30.4944 176.826 30.3122L177.229 30.5464C177.073 30.7936 176.865 30.9887 176.591 31.1448C176.318 31.2879 176.019 31.366 175.668 31.366C175.108 31.366 174.666 31.1969 174.315 30.8456C173.963 30.4943 173.794 30.052 173.794 29.5186C173.794 28.9852 173.963 28.5559 174.315 28.1917C174.666 27.8404 175.108 27.6583 175.655 27.6583ZM175.655 28.1136C175.29 28.1136 174.978 28.2307 174.731 28.4519C174.484 28.673 174.341 28.9462 174.289 29.2975H176.917C176.865 28.9202 176.721 28.634 176.487 28.4258C176.253 28.2177 175.967 28.1136 175.655 28.1136ZM180.95 27.7493H181.418V31.2749H180.95V29.7398H178.92V31.2749H178.452V27.7493H178.92V29.2845H180.95V27.7493ZM185.204 27.7493H185.672V31.2749H185.204V29.7398H183.174V31.2749H182.706V27.7493H183.174V29.2845H185.204V27.7493ZM189.913 30.8326C189.549 31.1839 189.12 31.366 188.599 31.366C188.079 31.366 187.636 31.1839 187.272 30.8326C186.908 30.4683 186.739 30.039 186.739 29.5186C186.739 28.9983 186.921 28.5559 187.272 28.2047C187.636 27.8404 188.079 27.6713 188.599 27.6713C189.12 27.6713 189.549 27.8534 189.913 28.2047C190.277 28.5559 190.46 28.9983 190.46 29.5186C190.46 30.039 190.277 30.4814 189.913 30.8326ZM187.61 30.5074C187.884 30.7806 188.209 30.9106 188.599 30.9106C188.989 30.9106 189.315 30.7806 189.588 30.5074C189.861 30.2342 189.991 29.9089 189.991 29.5056C189.991 29.1023 189.861 28.7901 189.588 28.5169C189.315 28.2437 188.989 28.1136 188.599 28.1136C188.209 28.1136 187.884 28.2437 187.61 28.5169C187.337 28.7901 187.207 29.1153 187.207 29.5056C187.207 29.8959 187.337 30.2342 187.61 30.5074ZM192.099 27.1769V26.7736H193.933V27.1769H192.099ZM194.115 27.7493H194.506V31.2749H194.037V28.5559L191.93 31.2749H191.539V27.7493H192.008V30.4683L194.115 27.7493ZM200.152 27.7493H200.62V31.2749H200.152V29.9349C199.878 30.078 199.54 30.1431 199.137 30.1431C198.669 30.1431 198.317 30.039 198.083 29.8308C197.849 29.6097 197.719 29.2975 197.719 28.8812V27.7493H198.187V28.8812C198.187 29.1804 198.265 29.3885 198.421 29.5186C198.578 29.6487 198.812 29.7138 199.124 29.7138C199.488 29.7138 199.826 29.6487 200.152 29.5056V27.7493ZM204.484 27.7493H204.874V31.2749H204.406V28.5559L202.298 31.2749H201.908V27.7493H202.376V30.4683L204.484 27.7493ZM207.814 31.366C207.281 31.366 206.839 31.1839 206.487 30.8326C206.136 30.4683 205.954 30.039 205.954 29.5186C205.954 28.9983 206.136 28.5559 206.487 28.2047C206.839 27.8404 207.281 27.6713 207.814 27.6713C208.166 27.6713 208.478 27.7624 208.751 27.9315C209.024 28.1006 209.232 28.3218 209.362 28.608L208.985 28.8291C208.894 28.621 208.738 28.4519 208.53 28.3218C208.322 28.1917 208.087 28.1266 207.827 28.1266C207.437 28.1266 207.112 28.2567 206.839 28.5299C206.565 28.8031 206.435 29.1283 206.435 29.5186C206.435 29.9089 206.565 30.2472 206.839 30.5204C207.112 30.7936 207.437 30.9237 207.827 30.9237C208.087 30.9237 208.322 30.8586 208.53 30.7415C208.738 30.6114 208.894 30.4423 209.011 30.2342L209.401 30.4553C209.258 30.7415 209.037 30.9627 208.764 31.1318C208.465 31.2749 208.153 31.366 207.814 31.366ZM212.836 27.7493V28.2047H211.587V31.2879H211.119V28.2047H209.87V27.7493H212.836ZM216.531 30.8326C216.166 31.1839 215.737 31.366 215.217 31.366C214.696 31.366 214.254 31.1839 213.89 30.8326C213.525 30.4683 213.356 30.039 213.356 29.5186C213.356 28.9983 213.538 28.5559 213.89 28.2047C214.254 27.8404 214.696 27.6713 215.217 27.6713C215.737 27.6713 216.166 27.8534 216.531 28.2047C216.895 28.5559 217.077 28.9983 217.077 29.5186C217.064 30.039 216.895 30.4814 216.531 30.8326ZM214.228 30.5074C214.501 30.7806 214.826 30.9106 215.217 30.9106C215.607 30.9106 215.932 30.7806 216.205 30.5074C216.479 30.2342 216.609 29.9089 216.609 29.5056C216.609 29.1023 216.479 28.7901 216.205 28.5169C215.932 28.2437 215.607 28.1136 215.217 28.1136C214.826 28.1136 214.501 28.2437 214.228 28.5169C213.955 28.7901 213.825 29.1153 213.825 29.5056C213.825 29.8959 213.955 30.2342 214.228 30.5074ZM220.551 27.7493V28.2047H219.302V31.2879H218.833V28.2047H217.584V27.7493H220.551ZM222.866 29.0893C223.192 29.0893 223.478 29.1934 223.699 29.4016C223.933 29.6097 224.05 29.8699 224.05 30.1821C224.05 30.5074 223.933 30.7675 223.699 30.9757C223.478 31.1838 223.192 31.2749 222.866 31.2749H221.435V27.7493H221.904V29.0893H222.866ZM224.532 27.7493H225V31.2749H224.532V27.7493ZM222.866 30.8326C223.061 30.8326 223.231 30.7675 223.374 30.6505C223.517 30.5334 223.582 30.3773 223.582 30.1821C223.582 29.987 223.517 29.8309 223.374 29.7138C223.244 29.5967 223.074 29.5317 222.866 29.5317H221.904V30.8196H222.866V30.8326Z" fill="#787878"/>
<path d="M18.1743 20.1777C16.5091 20.1777 15.1431 18.8247 15.1431 17.1464C15.1431 15.4682 16.4961 14.1152 18.1743 14.1152C19.8526 14.1152 21.2056 15.4682 21.2056 17.1464C21.2056 18.8247 19.8396 20.1777 18.1743 20.1777ZM63.5646 20.1777C65.2299 20.1777 66.5959 18.8247 66.5959 17.1464C66.5959 15.4682 65.2429 14.1152 63.5646 14.1152C61.8994 14.1152 60.5334 15.4682 60.5334 17.1464C60.5334 18.8247 61.8994 20.1777 63.5646 20.1777ZM74.6618 17.1595C74.6618 18.2783 73.7641 19.1759 72.6453 19.1759C71.5265 19.1759 70.6288 18.2783 70.6288 17.1595C70.6288 16.0406 71.5265 15.143 72.6453 15.143C73.7641 15.143 74.6618 16.0406 74.6618 17.1595ZM9.09367 19.1759C7.97485 19.1759 7.07719 18.2783 7.07719 17.1595C7.07719 16.0406 7.97485 15.143 9.09367 15.143C10.2125 15.143 11.1101 16.0406 11.1101 17.1595C11.1101 18.2783 10.1995 19.1759 9.09367 19.1759ZM81.726 17.1595C81.726 17.7189 81.2706 18.1742 80.7112 18.1742C80.1518 18.1742 79.6965 17.7189 79.6965 17.1595C79.6965 16.6 80.1518 16.1447 80.7112 16.1447C81.2706 16.1447 81.726 16.6 81.726 17.1595ZM1.01474 18.1612C0.455332 18.1612 0 17.7058 0 17.1464C0 16.587 0.455332 16.1317 1.01474 16.1317C1.57415 16.1317 2.02949 16.587 2.02949 17.1464C2.02949 17.7058 1.57415 18.1612 1.01474 18.1612Z" fill="#A2E555"/>
<path d="M189.441 13.6609V22.2086V22.2216H191.783V3.39575H189.441V11.6703H179.28V3.39575H176.938V22.2086H179.28V13.6609H189.441Z" fill="#A2E555"/>
<path d="M196.649 3.39575V22.2086V22.2216H198.991V3.39575H196.649Z" fill="#A2E555"/>
<path d="M212.326 22.2086H215.137L220.783 6.62231H220.913L221.434 22.2086H224.049L223.307 3.40876H219.794L213.94 19.6716H213.836L207.981 3.40876H204.468L203.727 22.2086H206.069L206.589 6.62231H206.719L212.326 22.2086Z" fill="#A2E555"/>
</svg>
